<svg width="106" height="44" viewBox="0 0 106 44" fill="none" xmlns="http://www.w3.org/2000/svg">
<path d="M33.5273 12.7143H7.46875C6.86445 12.7143 6.375 12.1389 6.375 11.4286C6.375 10.7182 6.86445 10.1429 7.46875 10.1429H33.7188C34.323 10.1429 34.8125 9.5675 34.8125 8.85714C34.8125 6.72687 33.3435 5 31.5312 5H6.375C3.9585 5 2 7.30223 2 10.1429V35.8571C2 38.6978 3.9585 41 6.375 41H33.5273C35.4428 41 37 39.2699 37 37.1429V16.5714C37 14.4444 35.4428 12.7143 33.5273 12.7143ZM30.4375 29.4286C29.2296 29.4286 28.25 28.2771 28.25 26.8571C28.25 25.4372 29.2296 24.2857 30.4375 24.2857C31.6454 24.2857 32.625 25.4372 32.625 26.8571C32.625 28.2771 31.6454 29.4286 30.4375 29.4286Z" fill="#FEBF32"/>
<path d="M41.92 15.328V6.112C41.92 3.664 43.144 2.44 45.592 2.44H52.36L53.44 3.28V4.264H45.568C44.48 4.264 43.936 4.808 43.936 5.896V15.544C43.936 16.632 44.48 17.176 45.568 17.176H53.44V18.16L52.36 19H45.592C43.144 19 41.92 17.776 41.92 15.328ZM55.7284 19V10.72H59.6524C60.8764 10.72 61.4884 11.332 61.4884 12.556V13.876C61.4884 14.916 61.0444 15.516 60.1564 15.676L61.7284 18.76L61.5964 19H60.7444L59.0764 15.712H56.7364V19H55.7284ZM56.7364 14.8H59.6644C60.2084 14.8 60.4804 14.528 60.4804 13.984V12.448C60.4804 11.904 60.2084 11.632 59.6644 11.632H56.7364V14.8ZM62.5642 10.936L62.6962 10.72H63.5482L65.8042 14.908L68.0602 10.72H68.9122L69.0442 10.936L66.3082 15.928V19H65.3002V15.928L62.5642 10.936ZM70.3652 19V10.72H74.2892C75.5132 10.72 76.1252 11.332 76.1252 12.556V14.116C76.1252 15.34 75.5132 15.952 74.2892 15.952H71.3732V19H70.3652ZM71.3732 15.04H74.3012C74.8452 15.04 75.1172 14.768 75.1172 14.224V12.448C75.1172 11.904 74.8452 11.632 74.3012 11.632H71.3732V15.04ZM77.1318 11.632V10.72H83.6598V11.632H80.8998V19H79.8918V11.632H77.1318ZM84.9053 17.164V12.556C84.9053 11.332 85.5173 10.72 86.7413 10.72H89.5493C90.7733 10.72 91.3853 11.332 91.3853 12.556V17.164C91.3853 18.388 90.7733 19 89.5493 19H86.7413C85.5173 19 84.9053 18.388 84.9053 17.164ZM85.9133 17.272C85.9133 17.816 86.1853 18.088 86.7293 18.088H89.5613C90.1053 18.088 90.3773 17.816 90.3773 17.272V12.448C90.3773 11.904 90.1053 11.632 89.5613 11.632H86.7293C86.1853 11.632 85.9133 11.904 85.9133 12.448V17.272Z" fill="#FEBF32"/>
<path d="M41.696 22.944L42.056 22.44H44.072L47.24 36.792H47.576L50.984 24.192H53.36L56.768 36.792H57.104L60.272 22.44H62.264L62.624 22.944L59 39H54.992L52.16 28.32L49.352 39H45.344L41.696 22.944ZM63.6019 38.706L66.6819 29.34H68.9639L72.0299 38.706L71.8479 39H70.6579L69.9299 36.704H65.7159L64.9879 39H63.7979L63.6019 38.706ZM66.1219 35.416H69.5239L67.9699 30.628H67.6759L66.1219 35.416ZM73.5367 39V29.34H74.9647V37.712H79.5007V39H73.5367ZM81.0699 39V29.34H82.4979V37.712H87.0339V39H81.0699ZM88.6031 39V29.34H94.9871V30.628H90.0311V33.316H94.5671V34.604H90.0311V37.712H94.9871V39H88.6031ZM96.0196 30.628V29.34H103.72V30.628H100.584V39H99.1556V30.628H96.0196Z" fill="#FEBF32"/>
</svg>
