<svg width="50" height="29" viewBox="0 0 50 29" fill="none" xmlns="http://www.w3.org/2000/svg">
<path d="M12.5 8.28571H16.6667V12.4286H20.8333V16.5714H16.6667V20.7143H12.5V16.5714H8.33333V12.4286H12.5V8.28571ZM38.5417 8.28571C39.3705 8.28571 40.1653 8.61307 40.7514 9.19577C41.3374 9.77848 41.6667 10.5688 41.6667 11.3929C41.6667 12.2169 41.3374 13.0072 40.7514 13.5899C40.1653 14.1726 39.3705 14.5 38.5417 14.5C37.7129 14.5 36.918 14.1726 36.332 13.5899C35.7459 13.0072 35.4167 12.2169 35.4167 11.3929C35.4167 10.5688 35.7459 9.77848 36.332 9.19577C36.918 8.61307 37.7129 8.28571 38.5417 8.28571ZM32.2917 14.5C33.1205 14.5 33.9153 14.8274 34.5014 15.4101C35.0874 15.9928 35.4167 16.7831 35.4167 17.6071C35.4167 18.4312 35.0874 19.2215 34.5014 19.8042C33.9153 20.3869 33.1205 20.7143 32.2917 20.7143C31.4629 20.7143 30.668 20.3869 30.082 19.8042C29.4959 19.2215 29.1667 18.4312 29.1667 17.6071C29.1667 16.7831 29.4959 15.9928 30.082 15.4101C30.668 14.8274 31.4629 14.5 32.2917 14.5V14.5ZM35.4167 0C39.2844 0 42.9937 1.52767 45.7286 4.24695C48.4635 6.96623 50 10.6544 50 14.5C50 18.3456 48.4635 22.0338 45.7286 24.753C42.9937 27.4723 39.2844 29 35.4167 29C31.3333 29 27.6458 27.3429 25 24.65C22.3542 27.3429 18.6667 29 14.5833 29C10.7156 29 7.00626 27.4723 4.27136 24.753C1.53645 22.0338 0 18.3456 0 14.5C0 10.6544 1.53645 6.96623 4.27136 4.24695C7.00626 1.52767 10.7156 0 14.5833 0H35.4167ZM14.5833 4.14286C11.8207 4.14286 9.17114 5.23405 7.21764 7.17639C5.26413 9.11874 4.16667 11.7531 4.16667 14.5C4.16667 17.2469 5.26413 19.8813 7.21764 21.8236C9.17114 23.7659 11.8207 24.8571 14.5833 24.8571C18 24.8571 21.0208 23.2207 22.9167 20.7143H27.0833C28.9792 23.2207 32 24.8571 35.4167 24.8571C38.1793 24.8571 40.8289 23.7659 42.7824 21.8236C44.7359 19.8813 45.8333 17.2469 45.8333 14.5C45.8333 11.7531 44.7359 9.11874 42.7824 7.17639C40.8289 5.23405 38.1793 4.14286 35.4167 4.14286H14.5833Z" fill="url(#paint0_linear_304:5)"/>
<defs>
<linearGradient id="paint0_linear_304:5" x1="-3.3222e-07" y1="15" x2="50" y2="15" gradientUnits="userSpaceOnUse">
<stop stop-color="#B5179E"/>
<stop offset="1" stop-color="#22B7A0"/>
</linearGradient>
</defs>
</svg>
