<svg width="397" height="426" fill="none" xmlns="http://www.w3.org/2000/svg"><path fill-rule="evenodd" clip-rule="evenodd" d="M202.613 0c36.954.024 64.006 33.554 94.03 55.578 28.418 20.847 59.64 38.67 76.871 69.787 18.088 32.664 27.802 71.085 21.627 108.085-6.105 36.579-34.568 62.809-55.239 93.313-23.464 34.626-34.161 88.143-74.269 97.798-40.53 9.757-74.369-32.542-110.743-53.259-28.163-16.042-58.092-28.835-78.37-54.457-19.86-25.094-23.614-57.779-34.453-88.096C27.993 189.387-11.64 151.13 3.32 112.11c14.76-38.5 69.746-36.72 105.184-56.655C140.882 37.24 165.656-.025 202.613 0z" fill="url(#paint0_linear)"/><defs><linearGradient id="paint0_linear" x1="198.5" y1="0" x2="198.5" y2="426" gradientUnits="userSpaceOnUse"><stop stop-color="#2EAD69"/><stop offset="1" stop-color="#244058"/></linearGradient></defs></svg>