<svg width="402" height="456" fill="none" xmlns="http://www.w3.org/2000/svg"><path fill-rule="evenodd" clip-rule="evenodd" d="M203.699 7.76c32.617-10.783 68.892-11.027 100.25 3.704 32.82 15.42 59.759 44.882 77.118 79.626 17.249 34.52 23.702 75.16 19.861 114.466-3.648 37.339-17.578 73.85-40.905 100.885-21.344 24.736-58.644 20.381-82.471 42.101-30.559 27.857-36.803 85.309-73.853 100.399-36.723 14.957-84.805 5.803-113.204-24.214-28.918-30.568-16.513-84.954-29.765-126.905C50.4 265.12 29 239.141 21.26 205.556c-9.467-41.069-35.973-93.085-10.497-124.513 27.888-34.405 82.605 1.979 121.931-12.959 28.636-10.876 42.003-50.735 71.005-60.323z" fill="url(#paint0_linear)"/><defs><linearGradient id="paint0_linear" x1="201" y1="0" x2="201" y2="456" gradientUnits="userSpaceOnUse"><stop stop-color="#2EAD69"/><stop offset="1" stop-color="#244058"/></linearGradient></defs></svg>