<svg width="239" height="212" fill="none" xmlns="http://www.w3.org/2000/svg"><path d="M206.789 29.815l-11.647 58.99a.665.665 0 00.226.645.672.672 0 00.674.114l12.452-4.693.088.518a105.17 105.17 0 01-40.518 100.429 105.17 105.17 0 01-107.692 11.409 110.706 110.706 0 00117.147-6.095 110.707 110.707 0 0045.912-107.948l14.341 1.164a.675.675 0 00.726-.651.675.675 0 00-.086-.349l-30.378-53.737a.673.673 0 00-1.245.204z" fill="url(#paint0_linear)"/><path d="M184.544 152.884a97.388 97.388 0 01-156.482-4.545 97.385 97.385 0 01-12.36-86.774A97.39 97.39 0 0178.09 0a102.552 102.552 0 10127.028 99.784 96.707 96.707 0 01-20.574 53.1z" fill="url(#paint1_linear)"/><path d="M163.137 50.058a132.365 132.365 0 01-20.343 20.746.668.668 0 00-.244.516v95.451a3.62 3.62 0 01-2.519 3.451l-.078.025a3.606 3.606 0 01-3.233-.522 3.622 3.622 0 01-1.484-2.92v-88.99a.673.673 0 00-.359-.594.665.665 0 00-.692.045 131.519 131.519 0 01-32.267 16.2.67.67 0 00-.454.632v77.089a3.633 3.633 0 01-1.323 2.798 3.629 3.629 0 01-3.002.754l-.142-.028a3.598 3.598 0 01-2.9-3.54c.019-8.3.038-19.475.052-19.467V96.721a.668.668 0 00-.842-.645l-.331.087a43.71 43.71 0 00-32.6 42.27v12.661a3.615 3.615 0 01-4.244 3.571 3.61 3.61 0 01-1.856-.932 86.01 86.01 0 0190.917-142.118 90.54 90.54 0 1017.484 152.633 85.188 85.188 0 0012.288-10.314l.395-.423a3.598 3.598 0 00.967-2.462V32.338a.674.674 0 00-.5-.653.672.672 0 00-.757.322 132.526 132.526 0 01-11.933 18.051z" fill="url(#paint2_linear)"/><defs><linearGradient id="paint0_linear" x1="60.372" y1="120.196" x2="238.498" y2="120.196" gradientUnits="userSpaceOnUse"><stop stop-color="#403BEB"/><stop offset="1" stop-color="#22B7A0"/></linearGradient><linearGradient id="paint1_linear" x1=".014" y1="101.07" x2="205.118" y2="101.07" gradientUnits="userSpaceOnUse"><stop stop-color="#403BEB"/><stop offset="1" stop-color="#22B7A0"/></linearGradient><linearGradient id="paint2_linear" x1="15.781" y1="93.386" x2="176.327" y2="93.386" gradientUnits="userSpaceOnUse"><stop stop-color="#403BEB"/><stop offset="1" stop-color="#22B7A0"/></linearGradient></defs></svg>