<svg width="1684" height="1620" fill="none" xmlns="http://www.w3.org/2000/svg"><g opacity=".08" fill="#53BDB1"><path d="M1476.52 0h6.08c-79.16 83.828-257.08 145.61-456.27 158.248-53.942 3.369-88.736 22.045-100.739 54.059-8.813 23.59-5.166 53.218 10.788 85.794 15.953 32.436 42.391 64.731 76.581 93.376 13.06 10.952 27.95 24.853 43.76 39.737 73.38 68.944 173.97 163.162 263.15 119.914 48.78-23.73 57.89-68.522 67.47-115.842 9.72-48.022 19.75-97.729 75.21-121.599 16.71-7.161 36.01-12.216 57.89-15.165v8.565c-20.52 2.809-38.45 7.583-54.1 14.323-51.2 22.045-60.47 67.539-70.19 115.561-9.57 47.32-19.45 96.184-72.17 121.74-69.59 33.699-143.43-8.846-207.55-61.923-50.9-37.491-97.55-84.39-131.886-111.77-118.21-94.078-154.675-236.178 2.279-253.87C1141.35 113.596 1282.19 64.731 1371.08.14L1476.52 0zm-273.26 1528.18c-17.8 2.39-36.37 7.45-55.99 12.78-33.63 9.13-68.02 18.39-101.34 15.3-29.67 2.67-58.885.56-85.665-13.05-31.953-16.29-42.451-55.74-29.214-84.8 41.539-91.11 190.199-95.89 210.739-199.78v-.14c12.78-43.38-13.7-92.93-42.76-125.37-49.45-54.89-139.525-100.09-220.929-109.36-3.652.14-7.456.14-11.107.28-32.562.84-68.623 1.69-104.38-.56-60.862-.28-124.159-5.76-172.545-33.413-76.382-43.522-55.08-155.273 16.738-135.478 3.347-2.386 6.999-4.492 10.803-5.896 14.911-5.756 40.321-7.02 75.621 20.357 38.344 29.622 74.1 42.959 112.444 42.257 33.778-.702 70.296-12.354 118.377-37.625 42.604-22.462 83.538-55.594 126.748-90.832 66.79-54.191 136.03-110.348 214.23-126.212 47.93-9.687 102.86-8.283 163.42 4.352 29.67 6.178 60.86 15.022 93.12 26.534v8.985c-33.02-11.933-64.82-21.058-95.1-27.376-59.19-12.354-112.9-13.758-159.46-4.352-75.92 15.443-144.24 70.757-210.28 124.386-43.67 35.379-84.901 68.932-128.265 91.816-49.451 26.112-87.338 38.046-122.638 38.748-40.778.842-78.361-13.197-118.53-44.224-25.258-19.514-48.081-25.972-66.188-18.952-16.128 6.317-26.931 23.024-28.757 44.925-2.13 24.849 8.673 61.21 45.647 82.409 63.144 36.081 155.047 33.691 228.842 31.871 7.608-.14 15.064-.42 22.367-.56 88.251-1.83 199.782 46.61 259.122 112.59 29.82 33.13 56.91 84.37 43.67 129.16v.14c-13.69 44.78-64.06 74.97-112.9 104.03-35.15 21.06-68.32 40.85-87.491 65.28-18.41 23.31-25.714 47.59-20.693 68.23 4.261 17.41 16.737 31.59 37.274 42.12 42.46 21.76 90.39 8.7 136.64-3.79 19.93-5.48 38.8-10.53 57.21-13.06 52.95-7.16 115.34-1.68 175.59 15.3 56.91 16.15 107.27 41.84 143.79 73.15V1620c-35.91-32.85-87.64-59.95-146.53-76.65-58.12-16.57-120.66-22.04-171.63-15.17z"/><path d="M818.661 125.289c-83.19 40.031-161.968 77.815-188.887 122.902-16.577 27.811-19.771 51.688-9.886 73.038 27.071 57.448 147.064 85.399 252.914 110.12 79.843 18.54 148.738 34.693 176.268 60.818 33 31.323 45.92 64.752 38.47 99.305-21.14 98.882-200.594 178.101-255.192 200.013-86.535 34.833-148.433 29.075-221.28-20.367-9.125-6.18-18.707-13.484-28.896-21.209-44.712-33.851-100.527-75.848-158.166-56.464-45.169 15.169-91.858 5.758-134.897-27.249-35.892-27.671-67.677-71.073-86.992-119.109-6.996-17.417-13.079-35.536-19.01-53.094-21.9-65.173-42.735-126.693-108.74-165.881C53.078 315.47 27.679 302.97 0 291.873v-9.129c29.656 11.658 56.727 24.861 79.388 38.345 68.741 40.873 90.945 106.748 112.541 170.516 5.931 17.417 11.862 35.396 18.858 52.672 18.706 46.773 49.427 88.911 84.254 115.598 28.135 21.631 72.847 43.683 125.924 25.844 62.506-21.068 120.45 22.614 166.987 57.869 10.038 7.585 19.619 14.748 28.592 20.929 69.654 47.334 129.118 52.812 212.155 19.383 31.025-12.501 91.25-38.907 146.304-75.426 60.528-40.312 95.358-80.202 103.568-118.407 6.69-31.744-5.32-62.645-36.04-91.86-25.71-24.44-96.88-41.014-172.009-58.571-107.979-25.142-230.253-53.655-258.997-114.895-11.102-23.597-7.604-50.565 10.189-80.483 28.288-47.335 108.131-85.68 192.689-126.272C889.835 81.747 967.093 44.526 1009.07 0h11.86c-41.822 48.178-122.882 87.225-202.269 125.29z"/><path d="M646.004 75.962c-49.434 22.606-96.131 44.089-118.49 72.452-34.985 44.37-48.674 95.198-38.483 143.219 10.343 49.003 44.871 92.53 97.043 122.297 20.991 11.935 61.908 23.449 105.41 35.665 87.005 24.431 185.569 52.092 198.65 100.112 4.259 15.726 2.282 29.908-5.932 42.124-21.903 32.715-83.81 45.212-133.397 55.181-21.447 4.353-40.004 8.003-51.412 12.637-61.755 24.852-106.018 20.64-158.038-14.603-7.757-5.335-15.363-11.233-23.576-17.551-21.143-16.428-42.894-33.558-67.992-38.473-12.32-2.387-24.032-.28-36.505 1.966-14.907 2.668-30.421 5.476-46.24-.281-62.972-22.465-86.093-103.482-104.649-168.633-5.172-18.113-10.039-35.243-15.211-49.003-33.768-89.582-79.856-212.16-178.42-270.711C49.595 90.986 25.867 79.894.01 70.627V61.64c27.835 9.688 53.389 21.482 73.771 33.698 101.151 60.096 147.999 184.359 182.071 275.064 5.324 14.182 10.191 31.452 15.515 49.705 18.1 63.326 40.46 142.096 99.173 163.017 13.538 4.774 26.923 2.387 41.221-.14 12.777-2.247 26.162-4.634 40.156-1.966 27.379 5.335 50.043 23.027 71.946 40.157 7.91 6.178 15.515 12.076 22.968 17.13 48.978 33.278 90.655 37.069 149.064 13.62 12.168-4.914 31.182-8.705 53.085-13.198 48.066-9.689 107.691-21.764 127.617-51.391 6.997-10.39 8.518-21.904 4.867-35.664-11.864-43.527-111.95-71.609-192.566-94.075-45.936-12.918-85.636-24.01-107.539-36.507-54.302-31.171-90.351-76.523-101.15-127.914-10.648-50.407 3.498-103.482 40.003-149.818 23.729-30.047 71.338-51.952 121.837-74.979C686.617 48.02 732.096 27.1 761.301 0h12.777c-29.965 31.031-79.552 53.778-128.074 75.962z"/><path d="M485.632 60.961l-3.798 4.214c-47.245 53.516-100.718 114.056-75.956 186.816 6.076 17.979 16.255 35.537 25.977 52.393 21.42 37.222 43.599 75.709 25.065 122.202-11.241 28.233-27.192 35.678-38.737 37.083-18.534 2.107-38.586-9.973-56.208-33.992-26.736-36.38-38.737-79.924-50.283-122.063-5.621-20.367-11.393-41.436-18.685-60.961C263.384 167.994 224.342 63.911 148.538 0h13.217c72.614 65.596 110.744 166.87 139.759 243.844 7.444 19.946 13.368 41.156 18.989 61.663 11.394 41.437 23.243 84.138 49.068 119.394 15.495 20.929 32.813 32.025 47.548 30.34 12.761-1.405 23.547-12.361 31.294-31.604 17.167-42.982-3.19-78.098-24.609-115.32-9.875-17.277-20.205-35.116-26.585-53.798v-.14c-26.129-77.115 29.015-139.48 77.627-194.682l3.798-4.214c1.215-1.405 3.038-3.371 5.165-5.759C500.064 31.604 514.191 15.03 526.041 0h11.393c-14.887 19.244-31.598 38.487-46.637 55.202-2.279 2.388-3.95 4.354-5.165 5.76zM888.273 1381.85c-41.99 15.57-80.1 20.93-107.299 15.27-38.719-8.08-60.032-35.59-80.52-62.28-7.448-9.52-15.198-19.54-23.54-28.29-21.835-22.87-48.014-34.75-75.776-47.4-28.922-13.18-58.798-26.7-83.042-53.62l-.404-.61c-9.497-14.46-15.916-27.92-19.274-39.97-23.284-49.35-24.292-106.24 28.605-125.18 66.664-23.81 141.384 60.82 198.882 82.7 78.036 29.79 155.136-11.53 235.162 9.49 57.253 15.01 94.363 73.22 90.443 97.03-.45 2.86-1.22 5.82-2.1 8.67a42.11 42.11 0 01-.54 5.24c-3.96 24.41-21.76 50.7-51.584 76.14-29.161 25.08-68.879 47.88-109.013 62.81zm-282.935-130.3c27.34 12.43 55.522 25.29 78.596 49.39 8.652 9.06 16.505 19.19 24.048 29.01 20.496 26.49 39.977 51.55 75.068 58.9 51.837 10.83 147.273-23.95 208.147-75.89 28.263-24.12 45.023-48.75 48.673-71.18 3.94-24.01-19.37-42.75-68.848-55.79-34.267-9-70.147-13-104.961-16.75-46.375-5.18-94.255-10.4-139.365-27.56-16.412-6.26-32.404-14.8-47.759-23.11-39.654-21.43-77.209-41.58-123.11-25.17-14.318 5.14-25.884 11.38-34.038 18.34-23.456 20.01-22.333 49.08 3.516 88.78 23.135 25.2 52.057 38.38 80.033 51.03zm667.432-871.152c-3.95 2.241-8.37 3.923-13.08 5.184-29.81 7.846-64.94-.281-96.27-22.139-36.5-25.5-60.23-64.172-60.23-98.5 0-3.643.31-7.426.76-10.929 2.29-15.133 10.8-27.182 25.4-36.01 29.2-17.514 78.94-17.934 111.03-9.528 18.55 4.904 35.43 19.336 47.45 40.634 10.95 19.336 17.18 43.155 17.18 65.434-.15 30.685-11.86 54.784-32.24 65.854zm-34.83-163.795c-25.7-6.865-74.82-8.687-103.57 8.547-12.32 7.426-19.47 17.515-21.29 30.125-.46 3.223-.76 6.445-.76 9.808 0 31.806 22.2 67.956 56.58 91.775 29.04 20.177 61.29 27.743 88.36 20.737 3.95-.981 7.6-2.522 10.95-4.343 17.64-9.668 27.68-30.966 27.68-58.708-.16-39.793-22.21-88.553-57.95-97.941zm48.31 634.331c4.45-1.225 9.18-1.799 14.09-1.893 30.99-.473 62.64 15.794 86.76 44.446 28.09 33.416 40.14 76.532 30.5 109.773-1.02 3.52-2.38 7.12-3.8 10.4-6.46 14.1-18.07 23.74-34.65 28.79-33.12 9.98-81.27-1.5-109.91-17.31-16.54-9.18-28.79-27.19-34.41-50.684-5.15-21.339-4.48-45.893 1.78-67.464 8.77-29.675 26.85-50.211 49.64-56.058zm-12.37 166.916c22.89 12.8 69.83 26.3 102.43 16.49 13.98-4.25 23.72-12.31 29.03-24.08 1.34-3.02 2.54-6.06 3.49-9.32 8.93-30.796-2.36-71.106-28.87-102.385-22.38-26.479-51.4-41.512-79.51-41.2-4.1.005-8.06.625-11.8 1.589-19.76 5.144-35.43 23.366-43.23 50.229-11.03 38.566-3.42 91.047 28.46 108.677zm-224.57-42.797c-6.45-3.443-13.85-10.434-12.3-23.922 1.43-12.62 11.21-31.256 20.9-39.871 13.95-12.441 41.82-9.508 60.54.477 13.34 7.115 21.16 17.112 21.15 27.446.04 2.007-.26 4.099-.84 6.174-2.94 10.892-14.56 20.994-31.7 27.756-17.65 6.888-42.36 10.146-57.75 1.94zm82.32-31.376c.38-1.522.58-3.001.62-4.439-.1-7.872-6.44-15.628-17.53-21.538-20.66-11.017-42.81-9.315-51.73-1.48-8.33 7.354-17.3 24.698-18.57 35.682-.9 7.868 1.95 13.63 8.62 17.188 11.3 6.025 32.3 5.03 51.26-2.351 14.68-5.819 24.93-14.403 27.33-23.062zM1560.5 1238.4c5.31-37.33 63.42-76.34 88.15-91.35 11.69-7.02 23.37-13.47 35.05-19.23v9.54c-10.01 5.06-20.18 10.67-30.04 16.7-49.31 30.03-80.87 61.89-84.21 85.46-2.73 18.95 13.51 32.42 48.25 40 19.12 4.21 42.49 2.1 66-2.39v8.56c-23.97 4.49-47.94 6.31-68.12 1.96-27.46-5.89-59.33-19.36-55.08-49.25z"/><path d="M1208.66 1339.25c-.61-23.05 9.89-45.95 31.96-70.4 34.69-38.22 85.21-60.28 133.9-81.64 3.04-1.26 5.93-2.53 8.82-3.93 106.36-46.65 192.79-90.77 268.56-154.56 3.35-2.81 7.15-5.91 11.26-9.42 6.09-5.06 13.09-10.82 20.54-17.14v11.38c-5.17 4.36-10.04 8.29-14.45 11.94-4.11 3.38-7.91 6.61-11.26 9.28-76.69 64.49-163.72 108.89-270.84 155.97-2.9 1.26-5.94 2.52-8.98 3.93-47.93 20.94-97.38 42.58-130.86 79.39-20.54 22.76-30.43 43.98-29.82 64.78.61 27.25 8.37 50.3 22.37 66.6 15.21 17.7 36.67 26.55 63.9 25.99 48.24-.84 91.91-20.65 134.21-39.9 42.14-19.11 85.51-38.78 134.66-40.89 41.54-1.69 79.88 3.37 111.07 14.33v8.99c-30.43-11.24-68.77-16.58-110.62-14.89-47.17 1.97-89.77 21.36-131.01 40.04-43.06 19.54-87.64 39.77-138 40.75-57.21 1.27-93.89-37.37-95.41-100.6z"/></g></svg>