<svg width="1522" height="780" fill="none" xmlns="http://www.w3.org/2000/svg"><g opacity=".08" fill="#53BDB1"><path d="M1477.52 0h6.08c-79.16 83.828-257.08 145.61-456.28 158.248-53.935 3.369-88.729 22.045-100.733 54.059-8.812 23.59-5.165 53.218 10.788 85.794 15.954 32.436 42.391 64.731 76.575 93.376 13.07 10.952 27.96 24.853 43.76 39.737 73.39 68.944 173.97 163.162 263.16 119.914 48.77-23.73 57.89-68.522 67.46-115.842 9.73-48.022 19.75-97.729 75.21-121.599 16.72-7.161 36.01-12.216 57.89-15.165v8.565c-20.51 2.809-38.44 7.583-54.09 14.323-51.2 22.045-60.47 67.539-70.19 115.561-9.58 47.32-19.45 96.184-72.18 121.74-69.58 33.699-143.43-8.846-207.55-61.923-50.9-37.491-97.54-84.39-131.88-111.77-118.209-94.078-154.675-236.178 2.279-253.87C1142.34 113.596 1283.19 64.731 1372.08.14L1477.52 0z"/><path d="M819.657 125.289c-83.189 40.031-161.968 77.814-188.886 122.902-16.577 27.811-19.771 51.688-9.886 73.038 27.071 57.448 147.064 85.399 252.914 110.12 79.843 18.54 148.741 34.693 176.261 60.818 33 31.323 45.93 64.752 38.48 99.304-21.14 98.883-200.597 178.102-255.195 200.014-86.535 34.833-148.433 29.075-221.28-20.367-9.125-6.18-18.707-13.484-28.896-21.209-44.713-33.851-100.527-75.848-158.166-56.464-45.169 15.169-91.858 5.758-134.898-27.249-35.891-27.671-67.676-71.073-86.991-119.109-6.996-17.417-13.079-35.536-19.01-53.094-21.9-65.173-42.736-126.693-108.74-165.881C54.074 315.47 28.676 302.97.997 291.873v-9.129c29.656 11.658 56.727 24.861 79.387 38.345 68.742 40.873 90.946 106.748 112.542 170.516 5.931 17.417 11.862 35.396 18.858 52.672 18.706 46.773 49.427 88.911 84.254 115.598 28.135 21.631 72.847 43.683 125.924 25.844 62.506-21.068 120.45 22.614 166.987 57.869 10.037 7.585 19.619 14.748 28.591 20.929 69.654 47.334 129.119 52.812 212.156 19.383 31.025-12.501 91.249-38.907 146.303-75.426 60.532-40.312 95.352-80.202 103.572-118.407 6.69-31.744-5.33-62.645-36.05-91.86-25.7-24.44-96.874-41.014-172.002-58.571-107.979-25.142-230.254-53.655-258.997-114.895-11.102-23.597-7.604-50.565 10.189-80.483 28.288-47.335 108.131-85.68 192.689-126.272C890.832 81.747 968.09 44.526 1010.06 0h11.87c-41.825 48.178-122.885 87.225-202.273 125.29z"/><path d="M646.995 75.962c-49.435 22.606-96.131 44.089-118.491 72.452-34.984 44.37-48.674 95.198-38.483 143.219 10.343 49.003 44.872 92.53 97.044 122.297 20.991 11.935 61.907 23.449 105.409 35.665 87.005 24.431 185.57 52.092 198.651 100.112 4.259 15.726 2.282 29.908-5.932 42.124-21.903 32.715-83.811 45.212-133.397 55.181-21.447 4.353-40.004 8.003-51.412 12.637-61.755 24.852-106.018 20.64-158.038-14.603-7.758-5.335-15.363-11.233-23.577-17.551-21.143-16.428-42.894-33.558-67.991-38.473-12.321-2.387-24.033-.28-36.506 1.966-14.906 2.668-30.421 5.476-46.24-.281-62.972-22.465-86.092-103.482-104.649-168.633-5.172-18.113-10.039-35.243-15.211-49.003-33.767-89.582-79.855-212.16-178.42-270.711C50.587 90.986 26.858 79.894 1 70.627V61.64c27.835 9.688 53.39 21.482 73.772 33.698 101.15 60.096 147.999 184.359 182.07 275.064 5.324 14.182 10.192 31.452 15.515 49.705 18.101 63.326 40.461 142.096 99.174 163.017 13.537 4.774 26.922 2.387 41.22-.14 12.777-2.247 26.163-4.634 40.156-1.966 27.379 5.335 50.043 23.027 71.946 40.157 7.91 6.178 15.515 12.076 22.968 17.13 48.979 33.278 90.656 37.069 149.064 13.62 12.169-4.914 31.182-8.705 53.086-13.198 48.065-9.689 107.691-21.764 127.617-51.391 6.996-10.39 8.518-21.904 4.867-35.664-11.864-43.527-111.95-71.609-192.566-94.075-45.936-12.918-85.636-24.01-107.539-36.507-54.302-31.171-90.351-76.523-101.151-127.914-10.647-50.407 3.498-103.482 40.004-149.818 23.728-30.047 71.338-51.952 121.837-74.979C687.607 48.02 733.087 27.1 762.291 0h12.777c-29.965 31.031-79.551 53.778-128.073 75.962z"/><path d="M486.622 60.961l-3.797 4.214c-47.245 53.516-100.718 114.056-75.957 186.816 6.077 17.979 16.255 35.537 25.977 52.393 21.42 37.222 43.599 75.709 25.066 122.202-11.242 28.233-27.192 35.678-38.738 37.083-18.533 2.107-38.586-9.973-56.207-33.992-26.737-36.38-38.738-79.924-50.283-122.063-5.621-20.367-11.394-41.436-18.686-60.961C264.374 167.994 225.333 63.911 149.529 0h13.216c72.614 65.596 110.744 166.87 139.76 243.844 7.443 19.946 13.368 41.156 18.989 61.663 11.393 41.437 23.242 84.138 49.067 119.394 15.495 20.929 32.813 32.025 47.549 30.34 12.761-1.405 23.546-12.361 31.294-31.604 17.166-42.982-3.19-78.098-24.61-115.32-9.874-17.277-20.204-35.116-26.585-53.798v-.14c-26.129-77.115 29.016-139.48 77.628-194.682l3.797-4.214c1.216-1.405 3.039-3.371 5.165-5.759C501.054 31.604 515.182 15.03 527.031 0h11.394c-14.888 19.244-31.598 38.487-46.638 55.202-2.278 2.388-3.949 4.355-5.165 5.76zm787.148 319.437c-3.96 2.241-8.37 3.923-13.08 5.184-29.81 7.846-64.94-.281-96.27-22.139-36.5-25.5-60.23-64.172-60.23-98.5 0-3.643.3-7.426.76-10.929 2.28-15.133 10.8-27.182 25.4-36.01 29.2-17.514 78.93-17.934 111.02-9.528 18.56 4.904 35.44 19.336 47.45 40.634 10.95 19.336 17.19 43.155 17.19 65.434-.15 30.685-11.86 54.784-32.24 65.854zm-34.83-163.795c-25.7-6.865-74.83-8.687-103.57 8.547-12.32 7.426-19.47 17.515-21.29 30.125-.46 3.223-.76 6.445-.76 9.808 0 31.806 22.2 67.956 56.57 91.775 29.05 20.177 61.29 27.743 88.36 20.737 3.96-.981 7.61-2.522 10.95-4.343 17.65-9.668 27.68-30.966 27.68-58.708-.15-39.793-22.2-88.553-57.94-97.941z"/></g></svg>