<svg width="111" height="122" fill="none" xmlns="http://www.w3.org/2000/svg"><path d="M111 0v82c0 22.091-17.909 40-40 40H40c-22.091 0-40-17.909-40-40V0h111z" fill="#7183E5"/><path d="M29.571 91.846h46.91v-67.26H41.276L29.57 31.96v59.886zm48.194 2.586H28.287A1.29 1.29 0 0127 93.14V31.245c0-.445.228-.86.603-1.097l12.621-7.95c.204-.128.441-.198.682-.198h36.86c.71 0 1.284.58 1.284 1.294V93.14a1.29 1.29 0 01-1.285 1.292z" fill="#fff"/><path d="M32.764 29.953h6.86v-4.322l-6.86 4.322zm8.146 2.585H28.29a1.285 1.285 0 01-1.236-.934 1.3 1.3 0 01.552-1.456L40.228 22.2c.395-.25.896-.265 1.305-.036.409.227.661.662.661 1.131v7.952c0 .714-.574 1.292-1.284 1.292zM83.483 100H34.005c-.71 0-1.285-.578-1.285-1.293V93.14a1.29 1.29 0 011.285-1.294c.71 0 1.285.58 1.285 1.294v4.273h46.909V30.156h-4.433a1.29 1.29 0 01-1.285-1.294 1.29 1.29 0 011.285-1.293h5.717c.71 0 1.287.58 1.287 1.293v69.845A1.29 1.29 0 0183.483 100zM40.908 50.92c-4.45 0-8.068-3.641-8.068-8.117 0-4.476 3.619-8.116 8.068-8.116.71 0 1.285.578 1.285 1.292 0 .715-.574 1.293-1.285 1.293-3.03 0-5.498 2.482-5.498 5.53 0 3.052 2.467 5.532 5.498 5.532 3.032 0 5.5-2.48 5.5-5.531a1.29 1.29 0 011.284-1.294c.71 0 1.285.58 1.285 1.294 0 4.476-3.619 8.118-8.069 8.118z" fill="#fff"/><path d="M41.006 45.873a1.291 1.291 0 01-1.064-.567l-2.093-3.104a1.297 1.297 0 01.34-1.796 1.284 1.284 0 011.789.345l1.058 1.569 5.34-7.478a1.28 1.28 0 011.796-.295c.577.415.709 1.224.294 1.806l-6.416 8.981a1.288 1.288 0 01-1.044.539zm-.098 24.53c-4.45 0-8.068-3.64-8.068-8.118 0-4.474 3.619-8.116 8.068-8.116.71 0 1.285.578 1.285 1.292a1.29 1.29 0 01-1.285 1.295c-3.03 0-5.498 2.48-5.498 5.529 0 3.05 2.467 5.531 5.498 5.531 3.032 0 5.5-2.48 5.5-5.531 0-.712.574-1.292 1.284-1.292.71 0 1.285.58 1.285 1.292 0 4.478-3.619 8.118-8.069 8.118z" fill="#fff"/><path d="M41.006 65.355a1.282 1.282 0 01-1.064-.567l-2.093-3.102a1.3 1.3 0 01.34-1.798 1.284 1.284 0 011.789.345l1.056 1.57 5.343-7.479a1.282 1.282 0 011.795-.296 1.3 1.3 0 01.294 1.806l-6.416 8.982a1.28 1.28 0 01-1.044.538zm-.098 24.532c-4.45 0-8.068-3.642-8.068-8.118 0-4.476 3.619-8.116 8.068-8.116.71 0 1.285.578 1.285 1.292a1.29 1.29 0 01-1.285 1.295c-3.03 0-5.498 2.48-5.498 5.53 0 3.048 2.467 5.53 5.498 5.53 3.032 0 5.5-2.482 5.5-5.53 0-.715.574-1.293 1.284-1.293.71 0 1.285.578 1.285 1.292 0 4.476-3.619 8.118-8.069 8.118z" fill="#fff"/><path d="M41.006 84.838a1.288 1.288 0 01-1.064-.568l-2.093-3.102a1.297 1.297 0 01.34-1.797 1.285 1.285 0 011.789.345l1.058 1.57 5.34-7.478a1.279 1.279 0 011.796-.296c.577.417.709 1.224.294 1.804L42.05 84.3a1.288 1.288 0 01-1.044.538zM69.592 43.52H55.333a1.29 1.29 0 01-1.284-1.295 1.29 1.29 0 011.284-1.294h14.259c.71 0 1.287.58 1.287 1.294 0 .714-.577 1.294-1.287 1.294zm0 19.771H55.333a1.29 1.29 0 01-1.284-1.294c0-.715.576-1.292 1.284-1.292h14.259c.71 0 1.287.578 1.287 1.292 0 .714-.577 1.294-1.287 1.294zm0 19.772H55.333a1.29 1.29 0 01-1.284-1.295c0-.714.576-1.292 1.284-1.292h14.259c.71 0 1.287.578 1.287 1.292a1.29 1.29 0 01-1.287 1.294z" fill="#fff"/></svg>