<svg width="154" height="153" fill="none" xmlns="http://www.w3.org/2000/svg"><path d="M141.318 83.997v-.002l-24.45-61.392a2.543 2.543 0 00-3.302-1.422l-.003.001-99.191 39.497a2.491 2.491 0 00-1.017.808A2.514 2.514 0 0012 63.694v66.095a2.542 2.542 0 002.542 2.542h106.769a2.542 2.542 0 002.542-2.542V93.691l16.046-6.391c1.304-.52 1.94-2 1.419-3.303zm-22.549 43.25H17.084V66.236H118.77v61.011zM54.415 61.164l42.566-16.96a20.224 20.224 0 0014.574 6.283l4.245 10.677H54.415zm69.438 27.066V63.694a2.542 2.542 0 00-2.542-2.542h-.04l-5.387-13.53c-.06-.112-.13-.22-.209-.32a2.51 2.51 0 00-2.656-1.957 15.202 15.202 0 01-13.329-5.74 2.52 2.52 0 00-3.261-.57 2.85 2.85 0 00-.359.066L44.105 59.794a2.511 2.511 0 00-1.396 1.358H26.927l86.158-34.306 22.571 56.676-11.803 4.708z" fill="#6FBA6D"/><path d="M23.983 110.085a15.2 15.2 0 0110.263 10.25 2.541 2.541 0 002.435 1.815c.132-.008.263-.028.392-.058.114.032.23.056.348.071h61.011c.105-.014.209-.035.31-.064 1.27.309 2.55-.47 2.859-1.74l.004-.014a15.198 15.198 0 0110.262-10.262 2.51 2.51 0 001.744-2.797c.034-.123.059-.249.074-.376V86.573a2.402 2.402 0 00-.076-.376 2.507 2.507 0 00-1.744-2.797 15.184 15.184 0 01-10.258-10.265 2.511 2.511 0 00-2.817-1.744 2.415 2.415 0 00-.358-.07h-61.01c-.129.015-.256.04-.38.076a2.511 2.511 0 00-2.796 1.743A15.2 15.2 0 0123.983 83.4a2.51 2.51 0 00-1.743 2.797 2.518 2.518 0 00-.071.376v20.337c.014.119.038.238.07.353a2.517 2.517 0 001.744 2.822zm3.27-22.48a20.172 20.172 0 0011.2-11.2h58.944a20.176 20.176 0 0011.204 11.2v18.273a20.197 20.197 0 00-11.201 11.2H38.453a20.196 20.196 0 00-11.2-11.2V87.605z" fill="#6FBA6D"/><path d="M68.253 112.505c8.424 0 15.252-6.828 15.252-15.252S76.677 82 68.254 82 53 88.829 53 97.253c.008 8.42 6.832 15.244 15.253 15.252zm0-25.42c5.616 0 10.168 4.552 10.168 10.168S73.87 107.42 68.253 107.42s-10.169-4.552-10.169-10.168 4.553-10.169 10.169-10.169zm-28.289 13.47a3.814 3.814 0 10-.002-7.628 3.814 3.814 0 00.002 7.628zm0-5.085a1.271 1.271 0 110 2.543 1.271 1.271 0 010-2.543zm55.926 5.085a3.814 3.814 0 10-.001-7.627 3.814 3.814 0 000 7.627zm0-5.085a1.271 1.271 0 110 2.543 1.271 1.271 0 010-2.543z" fill="#6FBA6D"/></svg>