<svg width="90" height="96" fill="none" xmlns="http://www.w3.org/2000/svg"><path d="M0 8h60c16.569 0 30 13.431 30 30v19c0 16.569-13.431 30-30 30H0V8z" fill="#7183E5"/><path d="M49.904 70.64c-3.755 0-6.955-.597-9.6-1.792-2.603-1.195-4.565-2.688-5.888-4.48-1.28-1.835-1.963-3.712-2.048-5.632 0-.384.128-.683.384-.896a1.53 1.53 0 011.024-.384h5.76c.939 0 1.557.427 1.856 1.28.939 3.072 3.797 4.608 8.576 4.608 2.603 0 4.65-.597 6.144-1.792 1.493-1.237 2.24-2.987 2.24-5.248 0-4.267-2.667-6.4-8-6.4H43.76c-.47 0-.853-.15-1.152-.448a1.481 1.481 0 01-.448-1.088V45.68c0-.683.299-1.323.896-1.92l11.456-11.2H36.208c-.427 0-.79-.15-1.088-.448a1.481 1.481 0 01-.448-1.088V26.8c0-.47.128-.853.384-1.152.299-.299.683-.448 1.152-.448h27.456c.47 0 .853.15 1.152.448.299.299.448.683.448 1.152v3.84c0 .64-.277 1.237-.832 1.792L53.36 43.824l.768.064c4.096.341 7.339 1.579 9.728 3.712 2.432 2.133 3.648 5.184 3.648 9.152 0 2.816-.768 5.27-2.304 7.36-1.493 2.09-3.584 3.712-6.272 4.864-2.645 1.11-5.653 1.664-9.024 1.664z" fill="#fff"/></svg>