<svg width="18" height="16" fill="none" xmlns="http://www.w3.org/2000/svg"><path d="M12.572 10.778l1-1a.251.251 0 01.428.178V14.5a1.5 1.5 0 01-1.5 1.5h-11A1.5 1.5 0 010 14.5v-11A1.5 1.5 0 011.5 2h8.547c.222 0 .334.269.178.428l-1 1a.248.248 0 01-.178.072H1.5v11h11v-3.547c0-.066.025-.128.072-.175zm4.894-6.306l-8.207 8.206-2.825.313c-.818.09-1.515-.6-1.425-1.425l.313-2.825L13.528.534a1.824 1.824 0 012.585 0l1.35 1.35a1.83 1.83 0 01.003 2.588zm-3.088.965l-1.816-1.815-5.806 5.81-.228 2.04 2.04-.228 5.81-5.807zm2.025-2.49l-1.35-1.35a.326.326 0 00-.462 0l-.966.965 1.816 1.816.965-.966a.333.333 0 00-.003-.465z" fill="#1731B9"/></svg>