<svg width="15" height="15" fill="none" xmlns="http://www.w3.org/2000/svg"><path fill-rule="evenodd" clip-rule="evenodd" d="M4.628.802h5.455c2.51 0 4.546 1.915 4.546 4.278v5.134c0 2.362-2.036 4.278-4.546 4.278H4.628c-2.51 0-4.546-1.916-4.546-4.278V5.08C.082 2.717 2.117.802 4.628.802zm5.455 12.406c1.755 0 3.182-1.343 3.182-2.995V5.08c0-1.65-1.428-2.994-3.182-2.994H4.628c-1.755 0-3.183 1.343-3.183 2.994v5.134c0 1.652 1.428 2.995 3.183 2.995h5.455z" fill="#070F08"/><path fill-rule="evenodd" clip-rule="evenodd" d="M3.718 7.647c0-1.89 1.629-3.423 3.637-3.423s3.637 1.533 3.637 3.423c0 1.89-1.629 3.422-3.637 3.422S3.718 9.537 3.718 7.647zm1.364 0c0 1.179 1.02 2.139 2.273 2.139 1.253 0 2.273-.96 2.273-2.14 0-1.18-1.02-2.138-2.273-2.138-1.253 0-2.273.959-2.273 2.139z" fill="#070F08"/><ellipse cx="11.265" cy="3.968" rx=".485" ry=".456" fill="#070F08"/></svg>