<svg width="16" height="16" fill="none" xmlns="http://www.w3.org/2000/svg"><g clip-path="url(#clip0_29_863)" fill="#070F08"><path d="M15.568 15.645h.004V9.943c0-2.79-.596-4.938-3.833-4.938-1.555 0-2.6.86-3.026 1.675h-.045V5.265H5.6v10.38h3.195v-5.14c0-1.353.255-2.662 1.918-2.662 1.638 0 1.663 1.545 1.663 2.749v5.053h3.192zM.397 5.266h3.2v10.38h-3.2V5.265zM1.996.098A1.86 1.86 0 00.143 1.965c0 1.031.83 1.885 1.853 1.885 1.022 0 1.852-.854 1.852-1.885A1.86 1.86 0 001.996.098z"/></g><defs><clipPath id="clip0_29_863"><path fill="#fff" transform="translate(.143 .098)" d="M0 0h15.429v15.547H0z"/></clipPath></defs></svg>