<svg width="26" height="23" fill="none" xmlns="http://www.w3.org/2000/svg"><path d="M1.867 12.727l.086-.135 5.203-8.14a.178.178 0 01.313.023c.869 1.948 1.619 4.371 1.267 5.88-.15.62-.56 1.46-1.023 2.237a4.09 4.09 0 01-.195.33.177.177 0 01-.148.079H2.02a.178.178 0 01-.153-.274z" fill="#070F08"/><path d="M25.058 14.24v1.288c0 .074-.046.14-.111.169-.403.172-1.782.805-2.355 1.602-1.463 2.037-2.58 4.948-5.08 4.948H7.088C3.394 22.247.4 19.243.4 15.537v-.12a.18.18 0 01.179-.179h5.81c.116 0 .2.107.19.22a1.99 1.99 0 00.207 1.116c.345.7 1.06 1.138 1.833 1.138h2.877v-2.245H8.652a.183.183 0 01-.148-.288c.03-.047.066-.097.103-.152.269-.382.653-.976 1.035-1.652.261-.456.514-.943.718-1.432.04-.089.074-.18.106-.268.056-.156.114-.302.155-.448.04-.123.073-.252.106-.373.097-.416.138-.855.138-1.312a6.05 6.05 0 00-.025-.544c-.008-.195-.033-.39-.057-.586a6.086 6.086 0 00-.08-.522 8.785 8.785 0 00-.165-.78l-.022-.099c-.05-.179-.09-.35-.148-.528a19.911 19.911 0 00-.547-1.62c-.072-.203-.154-.398-.236-.593-.121-.294-.245-.561-.358-.814-.057-.115-.106-.22-.156-.327a11.676 11.676 0 00-.17-.357c-.041-.088-.089-.17-.122-.253l-.35-.65a.115.115 0 01.128-.166l2.2.596h.005l.009.002.29.08.318.09.117.034V1.198c0-.63.505-1.143 1.13-1.143.312 0 .596.128.8.335.203.208.33.491.33.808v1.94l.234.065a.188.188 0 01.054.027l.244.185c.083.066.17.146.278.228.211.17.464.39.742.643.074.064.146.13.211.196.358.332.758.723 1.14 1.154.108.122.212.245.32.374.106.132.219.261.318.39.13.173.269.352.39.54.058.087.123.178.179.266.156.236.294.481.425.726.056.113.113.236.162.357.146.327.262.66.335.993.023.071.04.15.048.22v.016c.024.098.033.203.04.31a3.317 3.317 0 01-.178 1.455c-.05.14-.099.286-.162.423a5.74 5.74 0 01-.442.839 4.804 4.804 0 01-.187.302c-.072.104-.146.203-.212.3-.09.123-.187.252-.285.367a3.9 3.9 0 01-.278.35c-.137.162-.269.316-.407.464a4.25 4.25 0 01-.26.284c-.089.098-.18.187-.262.269a10.58 10.58 0 01-.349.333l-.226.207a.184.184 0 01-.121.046h-1.75v2.245h2.202a2.06 2.06 0 001.34-.495c.13-.113.694-.602 1.362-1.34a.17.17 0 01.084-.05l6.085-1.76a.18.18 0 01.228.173z" fill="#070F08"/></svg>