<svg width="13" height="11" fill="none" xmlns="http://www.w3.org/2000/svg"><path d="M12.875 1.87a5.226 5.226 0 01-1.457.405A2.545 2.545 0 0012.53.856a5.007 5.007 0 01-1.603.622A2.515 2.515 0 009.081.666c-1.4 0-2.526 1.153-2.526 2.566 0 .204.017.4.059.585-2.102-.104-3.961-1.126-5.21-2.684a2.614 2.614 0 00-.346 1.297c0 .89.45 1.677 1.123 2.133a2.467 2.467 0 01-1.142-.316v.028c0 1.247.876 2.283 2.025 2.521-.206.057-.43.085-.663.085-.162 0-.325-.01-.479-.044C2.25 7.853 3.18 8.6 4.284 8.625A5.03 5.03 0 01.545 9.684a7.039 7.039 0 003.878 1.151c4.651 0 7.194-3.911 7.194-7.302 0-.113-.004-.223-.01-.331a5.083 5.083 0 001.268-1.333z" fill="#070F08"/></svg>