<svg width="1684" height="1620" viewBox="0 0 1684 1620" fill="none" xmlns="http://www.w3.org/2000/svg">
<g opacity="0.08">
<path d="M1476.52 4.26024e-05L1482.6 4.28681e-05C1403.44 83.8277 1225.52 145.61 1026.33 158.248C972.388 161.617 937.594 180.293 925.591 212.307C916.778 235.897 920.425 265.525 936.379 298.101C952.332 330.537 978.77 362.832 1012.96 391.477C1026.02 402.429 1040.91 416.33 1056.72 431.214C1130.1 500.158 1230.69 594.376 1319.87 551.128C1368.65 527.398 1377.76 482.606 1387.34 435.286C1397.06 387.264 1407.09 337.557 1462.55 313.687C1479.26 306.526 1498.56 301.471 1520.44 298.522L1520.44 307.087C1499.92 309.896 1481.99 314.67 1466.34 321.41C1415.14 343.455 1405.87 388.949 1396.15 436.971C1386.58 484.291 1376.7 533.155 1323.98 558.711C1254.39 592.41 1180.55 549.865 1116.43 496.788C1065.53 459.297 1018.88 412.398 984.544 385.018C866.334 290.94 829.869 148.84 986.823 131.148C1141.35 113.596 1282.19 64.7312 1371.08 0.140411L1476.52 4.26024e-05Z" fill="#53BDB1"/>
<path d="M1203.26 1528.18C1185.46 1530.57 1166.89 1535.63 1147.27 1540.96C1113.64 1550.09 1079.25 1559.35 1045.93 1556.26C1016.26 1558.93 987.045 1556.82 960.265 1543.21C928.312 1526.92 917.814 1487.47 931.051 1458.41C972.59 1367.3 1121.25 1362.52 1141.79 1258.63L1141.79 1258.49C1154.57 1215.11 1128.09 1165.56 1099.03 1133.12C1049.58 1078.23 959.505 1033.03 878.101 1023.76C874.449 1023.9 870.645 1023.9 866.994 1024.04C834.432 1024.88 798.371 1025.73 762.614 1023.48C701.752 1023.2 638.455 1017.72 590.069 990.067C513.687 946.545 534.989 834.794 606.807 854.589C610.154 852.203 613.806 850.097 617.61 848.693C632.521 842.937 657.931 841.673 693.231 869.05C731.575 898.672 767.331 912.009 805.675 911.307C839.453 910.605 875.971 898.953 924.052 873.682C966.656 851.22 1007.59 818.088 1050.8 782.85C1117.59 728.659 1186.83 672.502 1265.03 656.638C1312.96 646.951 1367.89 648.355 1428.45 660.99C1458.12 667.168 1489.31 676.012 1521.57 687.524L1521.57 696.509C1488.55 684.576 1456.75 675.451 1426.47 669.133C1367.28 656.779 1313.57 655.375 1267.01 664.781C1191.09 680.224 1122.77 735.538 1056.73 789.167C1013.06 824.546 971.829 858.099 928.465 880.983C879.014 907.095 841.127 919.029 805.827 919.731C765.049 920.573 727.466 906.534 687.297 875.507C662.039 855.993 639.216 849.535 621.109 856.555C604.981 862.872 594.178 879.579 592.352 901.48C590.222 926.329 601.025 962.69 637.999 983.889C701.143 1019.97 793.046 1017.58 866.841 1015.76C874.449 1015.62 881.905 1015.34 889.208 1015.2C977.459 1013.37 1088.99 1061.81 1148.33 1127.79C1178.15 1160.92 1205.24 1212.16 1192 1256.95L1192 1257.09C1178.31 1301.87 1127.94 1332.06 1079.1 1361.12C1043.95 1382.18 1010.78 1401.97 991.609 1426.4C973.199 1449.71 965.895 1473.99 970.916 1494.63C975.177 1512.04 987.653 1526.22 1008.19 1536.75C1050.65 1558.51 1098.58 1545.45 1144.83 1532.96C1164.76 1527.48 1183.63 1522.43 1202.04 1519.9C1254.99 1512.74 1317.38 1518.22 1377.63 1535.2C1434.54 1551.35 1484.9 1577.04 1521.42 1608.35L1521.42 1620C1485.51 1587.15 1433.78 1560.05 1374.89 1543.35C1316.77 1526.78 1254.23 1521.31 1203.26 1528.18Z" fill="#53BDB1"/>
<path d="M818.661 125.289C735.471 165.32 656.693 203.104 629.774 248.191C613.197 276.002 610.003 299.879 619.888 321.229C646.959 378.677 766.952 406.628 872.802 431.349C952.645 449.889 1021.54 466.042 1049.07 492.167C1082.07 523.49 1094.99 556.919 1087.54 591.472C1066.4 690.354 886.946 769.573 832.348 791.485C745.813 826.318 683.915 820.56 611.068 771.118C601.943 764.938 592.361 757.634 582.172 749.909C537.46 716.058 481.645 674.061 424.006 693.445C378.837 708.614 332.148 699.203 289.109 666.196C253.217 638.525 221.432 595.123 202.117 547.087C195.121 529.67 189.038 511.551 183.107 493.993C161.207 428.82 140.372 367.3 74.3678 328.112C53.0762 315.47 27.6785 302.97 -0.000595715 291.873L-0.000595316 282.744C29.6555 294.402 56.7262 307.605 79.3866 321.089C148.128 361.962 170.332 427.837 191.928 491.605C197.859 509.022 203.79 527.001 210.786 544.277C229.492 591.05 260.213 633.188 295.04 659.875C323.175 681.506 367.887 703.558 420.964 685.719C483.47 664.651 541.414 708.333 587.951 743.588C597.989 751.173 607.57 758.336 616.543 764.517C686.197 811.851 745.661 817.329 828.698 783.9C859.723 771.399 919.948 744.993 975.002 708.474C1035.53 668.162 1070.36 628.272 1078.57 590.067C1085.26 558.323 1073.25 527.422 1042.53 498.207C1016.82 473.767 945.65 457.193 870.521 439.636C762.542 414.494 640.268 385.981 611.524 324.741C600.422 301.144 603.92 274.176 621.713 244.258C650.001 196.923 729.844 158.578 814.402 117.986C889.835 81.7472 967.093 44.5257 1009.07 0.00027746L1020.93 0.000277979C979.108 48.1776 898.048 87.2251 818.661 125.289Z" fill="#53BDB1"/>
<path d="M646.004 75.9624C596.57 98.5685 549.873 120.051 527.514 148.414C492.529 192.784 478.84 243.612 489.031 291.633C499.374 340.636 533.902 384.163 586.074 413.93C607.065 425.865 647.982 437.379 691.484 449.595C778.489 474.026 877.053 501.687 890.134 549.707C894.393 565.433 892.416 579.615 884.202 591.831C862.299 624.546 800.392 637.043 750.805 647.012C729.358 651.365 710.801 655.015 699.393 659.649C637.638 684.501 593.375 680.289 541.355 645.046C533.598 639.711 525.992 633.813 517.779 627.495C496.636 611.067 474.885 593.937 449.787 589.022C437.467 586.635 425.755 588.742 413.282 590.988C398.375 593.656 382.861 596.464 367.042 590.707C304.07 568.242 280.949 487.225 262.393 422.074C257.221 403.961 252.354 386.831 247.182 373.071C213.414 283.489 167.326 160.911 68.7615 102.36C49.5962 90.9863 25.8676 79.8938 0.0095389 70.6267L0.00953929 61.6406C27.845 71.3289 53.3988 83.1234 73.781 95.3391C174.932 155.435 221.78 279.698 255.852 370.403C261.176 384.585 266.043 401.855 271.367 420.108C289.467 483.434 311.827 562.204 370.54 583.125C384.078 587.899 397.463 585.512 411.761 582.985C424.538 580.738 437.923 578.351 451.917 581.019C479.296 586.354 501.96 604.046 523.863 621.176C531.773 627.354 539.378 633.252 546.831 638.306C595.809 671.584 637.486 675.375 695.895 651.926C708.063 647.012 727.077 643.221 748.98 638.728C797.046 629.039 856.671 616.964 876.597 587.337C883.594 576.947 885.115 565.433 881.464 551.673C869.6 508.146 769.514 480.064 688.898 457.598C642.962 444.68 603.262 433.588 581.359 421.091C527.057 389.92 491.008 344.568 480.209 293.177C469.561 242.77 483.707 189.695 520.212 143.359C543.941 113.312 591.55 91.4075 642.049 68.3802C686.617 48.0207 732.096 27.0996 761.301 0.00034264L774.078 0.000343198C744.113 31.0311 694.526 53.7775 646.004 75.9624Z" fill="#53BDB1"/>
<path d="M485.632 60.9611L481.834 65.175C434.589 118.691 381.116 179.231 405.878 251.991C411.954 269.97 422.133 287.528 431.855 304.384C453.275 341.606 475.454 380.093 456.92 426.586C445.679 454.819 429.728 462.264 418.183 463.669C399.649 465.776 379.597 453.696 361.975 429.677C335.239 393.297 323.238 349.753 311.692 307.614C306.071 287.247 300.299 266.178 293.007 246.653C263.384 167.994 224.342 63.9108 148.538 5.69273e-05L161.755 5.7505e-05C234.369 65.5963 272.499 166.87 301.514 243.844C308.958 263.79 314.882 285 320.503 305.507C331.897 346.944 343.746 389.645 369.571 424.901C385.066 445.83 402.384 456.926 417.119 455.241C429.88 453.836 440.666 442.88 448.413 423.637C465.58 380.655 445.223 345.539 423.804 308.317C413.929 291.04 403.599 273.201 397.219 254.519L397.219 254.379C371.09 177.264 426.234 114.899 474.846 59.6969L478.644 55.483C479.859 54.0784 481.682 52.1119 483.809 49.724C500.064 31.6043 514.191 15.0296 526.041 7.34285e-05L537.434 7.39265e-05C522.547 19.2435 505.836 38.4869 490.797 55.202C488.518 57.5898 486.847 59.5564 485.632 60.9611Z" fill="#53BDB1"/>
<path d="M888.273 1381.85C846.283 1397.42 808.173 1402.78 780.974 1397.12C742.255 1389.04 720.942 1361.53 700.454 1334.84C693.006 1325.32 685.256 1315.3 676.914 1306.55C655.079 1283.68 628.9 1271.8 601.138 1259.15C572.216 1245.97 542.34 1232.45 518.096 1205.53L517.692 1204.92C508.195 1190.46 501.776 1177 498.418 1164.95C475.134 1115.6 474.126 1058.71 527.023 1039.77C593.687 1015.96 668.407 1100.59 725.905 1122.47C803.941 1152.26 881.041 1110.94 961.067 1131.96C1018.32 1146.97 1055.43 1205.18 1051.51 1228.99C1051.06 1231.85 1050.29 1234.81 1049.41 1237.66C1049.34 1239.44 1049.16 1241.13 1048.87 1242.9C1044.91 1267.31 1027.11 1293.6 997.286 1319.04C968.125 1344.12 928.407 1366.92 888.273 1381.85ZM605.338 1251.55C632.678 1263.98 660.86 1276.84 683.934 1300.94C692.586 1310 700.439 1320.13 707.982 1329.95C728.478 1356.44 747.959 1381.5 783.05 1388.85C834.887 1399.68 930.323 1364.9 991.197 1312.96C1019.46 1288.84 1036.22 1264.21 1039.87 1241.78C1043.81 1217.77 1020.5 1199.03 971.022 1185.99C936.755 1176.99 900.875 1172.99 866.061 1169.24C819.686 1164.06 771.806 1158.84 726.696 1141.68C710.284 1135.42 694.292 1126.88 678.937 1118.57C639.283 1097.14 601.728 1076.99 555.827 1093.4C541.509 1098.54 529.943 1104.78 521.789 1111.74C498.333 1131.75 499.456 1160.82 525.305 1200.52C548.44 1225.72 577.362 1238.9 605.338 1251.55Z" fill="#53BDB1"/>
<path d="M1272.77 380.398C1268.82 382.639 1264.4 384.321 1259.69 385.582C1229.88 393.428 1194.75 385.301 1163.42 363.443C1126.92 337.943 1103.19 299.271 1103.19 264.943C1103.19 261.3 1103.5 257.517 1103.95 254.014C1106.24 238.881 1114.75 226.832 1129.35 218.004C1158.55 200.49 1208.29 200.07 1240.38 208.476C1258.93 213.38 1275.81 227.812 1287.83 249.11C1298.78 268.446 1305.01 292.265 1305.01 314.544C1304.86 345.229 1293.15 369.328 1272.77 380.398ZM1237.94 216.603C1212.24 209.738 1163.12 207.916 1134.37 225.15C1122.05 232.576 1114.9 242.665 1113.08 255.275C1112.62 258.498 1112.32 261.72 1112.32 265.083C1112.32 296.889 1134.52 333.039 1168.9 356.858C1197.94 377.035 1230.19 384.601 1257.26 377.595C1261.21 376.614 1264.86 375.073 1268.21 373.252C1285.85 363.584 1295.89 342.286 1295.89 314.544C1295.73 274.751 1273.68 225.991 1237.94 216.603Z" fill="#53BDB1"/>
<path d="M1286.25 850.934C1290.7 849.709 1295.43 849.135 1300.34 849.041C1331.33 848.568 1362.98 864.835 1387.1 893.487C1415.19 926.903 1427.24 970.019 1417.6 1003.26C1416.58 1006.78 1415.22 1010.38 1413.8 1013.66C1407.34 1027.76 1395.73 1037.4 1379.15 1042.45C1346.03 1052.43 1297.88 1040.95 1269.24 1025.14C1252.7 1015.96 1240.45 997.95 1234.83 974.456C1229.68 953.117 1230.35 928.563 1236.61 906.992C1245.38 877.317 1263.46 856.781 1286.25 850.934ZM1273.88 1017.85C1296.77 1030.65 1343.71 1044.15 1376.31 1034.34C1390.29 1030.09 1400.03 1022.03 1405.34 1010.26C1406.68 1007.24 1407.88 1004.2 1408.83 1000.94C1417.76 970.144 1406.47 929.834 1379.96 898.555C1357.58 872.076 1328.56 857.043 1300.45 857.355C1296.35 857.36 1292.39 857.98 1288.65 858.944C1268.89 864.088 1253.22 882.31 1245.42 909.173C1234.39 947.739 1242 1000.22 1273.88 1017.85Z" fill="#53BDB1"/>
<path d="M1049.31 975.053C1042.86 971.61 1035.46 964.619 1037.01 951.131C1038.44 938.511 1048.22 919.875 1057.91 911.26C1071.86 898.819 1099.73 901.752 1118.45 911.737C1131.79 918.852 1139.61 928.849 1139.6 939.183C1139.64 941.19 1139.34 943.282 1138.76 945.357C1135.82 956.249 1124.2 966.351 1107.06 973.113C1089.41 980.001 1064.7 983.259 1049.31 975.053ZM1131.63 943.677C1132.01 942.155 1132.21 940.676 1132.25 939.238C1132.15 931.366 1125.81 923.61 1114.72 917.7C1094.06 906.683 1071.91 908.385 1062.99 916.22C1054.66 923.574 1045.69 940.918 1044.42 951.902C1043.52 959.77 1046.37 965.532 1053.04 969.09C1064.34 975.115 1085.34 974.12 1104.3 966.739C1118.98 960.92 1129.23 952.336 1131.63 943.677Z" fill="#53BDB1"/>
<path d="M1560.5 1238.4C1565.81 1201.07 1623.92 1162.06 1648.65 1147.05C1660.34 1140.03 1672.02 1133.58 1683.7 1127.82L1683.7 1137.36C1673.69 1142.42 1663.52 1148.03 1653.66 1154.06C1604.35 1184.09 1572.79 1215.95 1569.45 1239.52C1566.72 1258.47 1582.96 1271.94 1617.7 1279.52C1636.82 1283.73 1660.19 1281.62 1683.7 1277.13L1683.7 1285.69C1659.73 1290.18 1635.76 1292 1615.58 1287.65C1588.12 1281.76 1556.25 1268.29 1560.5 1238.4Z" fill="#53BDB1"/>
<path d="M1208.66 1339.25C1208.05 1316.2 1218.55 1293.3 1240.62 1268.85C1275.31 1230.63 1325.83 1208.57 1374.52 1187.21C1377.56 1185.95 1380.45 1184.68 1383.34 1183.28C1489.7 1136.63 1576.13 1092.51 1651.9 1028.72C1655.25 1025.91 1659.05 1022.81 1663.16 1019.3C1669.25 1014.24 1676.25 1008.48 1683.7 1002.16L1683.7 1013.54C1678.53 1017.9 1673.66 1021.83 1669.25 1025.48C1665.14 1028.86 1661.34 1032.09 1657.99 1034.76C1581.3 1099.25 1494.27 1143.65 1387.15 1190.73C1384.25 1191.99 1381.21 1193.25 1378.17 1194.66C1330.24 1215.6 1280.79 1237.24 1247.31 1274.05C1226.77 1296.81 1216.88 1318.03 1217.49 1338.83C1218.1 1366.08 1225.86 1389.13 1239.86 1405.43C1255.07 1423.13 1276.53 1431.98 1303.76 1431.42C1352 1430.58 1395.67 1410.77 1437.97 1391.52C1480.11 1372.41 1523.48 1352.74 1572.63 1350.63C1614.17 1348.94 1652.51 1354 1683.7 1364.96L1683.7 1373.95C1653.27 1362.71 1614.93 1357.37 1573.08 1359.06C1525.91 1361.03 1483.31 1380.42 1442.07 1399.1C1399.01 1418.64 1354.43 1438.87 1304.07 1439.85C1246.86 1441.12 1210.18 1402.48 1208.66 1339.25Z" fill="#53BDB1"/>
</g>
</svg>
