<svg width="1522" height="780" viewBox="0 0 1522 780" fill="none" xmlns="http://www.w3.org/2000/svg">
<g opacity="0.08">
<path d="M1477.52 5.91158e-05L1483.6 5.93814e-05C1404.44 83.8277 1226.52 145.61 1027.32 158.248C973.385 161.617 938.591 180.293 926.587 212.307C917.775 235.897 921.422 265.525 937.375 298.101C953.329 330.537 979.766 362.832 1013.95 391.477C1027.02 402.429 1041.91 416.33 1057.71 431.214C1131.1 500.158 1231.68 594.376 1320.87 551.128C1369.64 527.398 1378.76 482.606 1388.33 435.286C1398.06 387.264 1408.08 337.557 1463.54 313.687C1480.26 306.526 1499.55 301.471 1521.43 298.522L1521.43 307.087C1500.92 309.896 1482.99 314.67 1467.34 321.41C1416.14 343.455 1406.87 388.949 1397.15 436.971C1387.57 484.291 1377.7 533.155 1324.97 558.711C1255.39 592.41 1181.54 549.865 1117.42 496.788C1066.52 459.297 1019.88 412.398 985.54 385.018C867.331 290.94 830.865 148.84 987.819 131.148C1142.34 113.596 1283.19 64.7313 1372.08 0.140435L1477.52 5.91158e-05Z" fill="#53BDB1"/>
<path d="M819.657 125.289C736.468 165.32 657.689 203.103 630.771 248.191C614.194 276.002 611 299.879 620.885 321.229C647.956 378.677 767.949 406.628 873.799 431.349C953.642 449.889 1022.54 466.042 1050.06 492.167C1083.06 523.49 1095.99 556.919 1088.54 591.471C1067.4 690.354 887.943 769.573 833.345 791.485C746.81 826.318 684.912 820.56 612.065 771.118C602.94 764.938 593.358 757.634 583.169 749.909C538.456 716.058 482.642 674.061 425.003 693.445C379.834 708.614 333.145 699.203 290.105 666.196C254.214 638.525 222.429 595.123 203.114 547.087C196.118 529.67 190.035 511.551 184.104 493.993C162.204 428.82 141.368 367.3 75.3646 328.112C54.073 315.47 28.6753 302.97 0.996239 291.873L0.996239 282.744C30.6524 294.402 57.723 307.605 80.3834 321.089C149.125 361.962 171.329 427.837 192.925 491.605C198.856 509.022 204.787 527.001 211.783 544.277C230.489 591.05 261.21 633.188 296.037 659.875C324.172 681.506 368.884 703.558 421.961 685.719C484.467 664.651 542.411 708.333 588.948 743.588C598.985 751.173 608.567 758.336 617.539 764.517C687.193 811.851 746.658 817.329 829.695 783.9C860.72 771.399 920.944 744.993 975.998 708.474C1036.53 668.162 1071.35 628.272 1079.57 590.067C1086.26 558.323 1074.24 527.422 1043.52 498.207C1017.82 473.767 946.646 457.193 871.518 439.636C763.539 414.494 641.264 385.981 612.521 324.741C601.419 301.144 604.917 274.176 622.71 244.258C650.998 196.923 730.841 158.578 815.399 117.986C890.832 81.7472 968.09 44.5257 1010.06 0.000301656L1021.93 0.000302175C980.105 48.1776 899.045 87.2252 819.657 125.289Z" fill="#53BDB1"/>
<path d="M646.995 75.9624C597.56 98.5685 550.864 120.051 528.504 148.414C493.52 192.784 479.83 243.612 490.021 291.633C500.364 340.636 534.893 384.163 587.065 413.93C608.056 425.865 648.972 437.379 692.474 449.595C779.479 474.026 878.044 501.687 891.125 549.707C895.384 565.433 893.407 579.615 885.193 591.831C863.29 624.546 801.382 637.043 751.796 647.012C730.349 651.365 711.792 655.015 700.384 659.649C638.629 684.501 594.366 680.289 542.346 645.046C534.588 639.711 526.983 633.813 518.769 627.495C497.626 611.067 475.875 593.937 450.778 589.022C438.457 586.635 426.745 588.742 414.272 590.988C399.366 593.656 383.851 596.464 368.032 590.707C305.06 568.242 281.94 487.225 263.383 422.074C258.211 403.961 253.344 386.831 248.172 373.071C214.405 283.489 168.317 160.911 69.752 102.36C50.5866 90.9864 26.8581 79.8938 1.00003 70.6267L1.00003 61.6406C28.8354 71.3289 54.3893 83.1234 74.7715 95.3391C175.922 155.435 222.771 279.698 256.842 370.403C262.166 384.585 267.034 401.855 272.357 420.108C290.458 483.434 312.818 562.204 371.531 583.125C385.068 587.899 398.453 585.512 412.751 582.985C425.528 580.738 438.914 578.351 452.907 581.019C480.286 586.354 502.95 604.046 524.853 621.176C532.763 627.354 540.368 633.252 547.821 638.306C596.8 671.584 638.477 675.375 696.885 651.926C709.054 647.012 728.067 643.221 749.971 638.728C798.036 629.039 857.662 616.964 877.588 587.337C884.584 576.947 886.106 565.433 882.455 551.673C870.591 508.146 770.505 480.064 689.889 457.598C643.953 444.68 604.253 433.588 582.35 421.091C528.048 389.92 491.999 344.568 481.199 293.177C470.552 242.77 484.697 189.695 521.203 143.359C544.931 113.312 592.541 91.4075 643.04 68.3802C687.607 48.0207 733.087 27.0995 762.291 0.000360484L775.068 0.000361043C745.103 31.0311 695.517 53.7775 646.995 75.9624Z" fill="#53BDB1"/>
<path d="M486.622 60.9611L482.825 65.175C435.58 118.691 382.107 179.231 406.868 251.991C412.945 269.97 423.123 287.528 432.845 304.384C454.265 341.606 476.444 380.093 457.911 426.586C446.669 454.819 430.719 462.264 419.173 463.669C400.64 465.776 380.587 453.696 362.966 429.677C336.229 393.297 324.228 349.753 312.683 307.614C307.062 287.247 301.289 266.178 293.997 246.653C264.374 167.994 225.333 63.9108 149.529 4.4036e-05L162.745 4.46137e-05C235.359 65.5963 273.489 166.87 302.505 243.844C309.948 263.79 315.873 285 321.494 305.507C332.887 346.944 344.736 389.645 370.561 424.901C386.056 445.83 403.374 456.926 418.11 455.241C430.871 453.836 441.656 442.88 449.404 423.637C466.57 380.655 446.214 345.539 424.794 308.317C414.92 291.04 404.59 273.201 398.209 254.519L398.209 254.379C372.08 177.264 427.225 114.899 475.837 59.6969L479.634 55.483C480.85 54.0784 482.673 52.1119 484.799 49.724C501.054 31.6043 515.182 15.0296 527.031 6.05371e-05L538.425 6.10352e-05C523.537 19.2435 506.827 38.4868 491.787 55.202C489.509 57.5898 487.838 59.5565 486.622 60.9611Z" fill="#53BDB1"/>
<path d="M1273.77 380.398C1269.81 382.639 1265.4 384.321 1260.69 385.582C1230.88 393.428 1195.75 385.301 1164.42 363.443C1127.92 337.943 1104.19 299.271 1104.19 264.943C1104.19 261.3 1104.49 257.517 1104.95 254.014C1107.23 238.881 1115.75 226.832 1130.35 218.004C1159.55 200.49 1209.28 200.07 1241.37 208.476C1259.93 213.38 1276.81 227.812 1288.82 249.11C1299.77 268.446 1306.01 292.265 1306.01 314.544C1305.86 345.229 1294.15 369.328 1273.77 380.398ZM1238.94 216.603C1213.24 209.738 1164.11 207.916 1135.37 225.15C1123.05 232.576 1115.9 242.665 1114.08 255.275C1113.62 258.498 1113.32 261.72 1113.32 265.083C1113.32 296.889 1135.52 333.039 1169.89 356.858C1198.94 377.035 1231.18 384.601 1258.25 377.595C1262.21 376.614 1265.86 375.073 1269.2 373.252C1286.85 363.584 1296.88 342.286 1296.88 314.544C1296.73 274.751 1274.68 225.991 1238.94 216.603Z" fill="#53BDB1"/>
</g>
</svg>
