<svg width="16" height="16" viewBox="0 0 16 16" fill="none" xmlns="http://www.w3.org/2000/svg">
<g clip-path="url(#clip0_29_863)">
<path d="M15.5676 15.6453V15.6446H15.5715V9.94275C15.5715 7.15336 14.9755 5.00464 11.7394 5.00464C10.1837 5.00464 9.13967 5.86491 8.71345 6.68048H8.66845V5.26505H5.6001V15.6446H8.7951V10.505C8.7951 9.1518 9.04967 7.84326 10.7127 7.84326C12.3514 7.84326 12.3758 9.3876 12.3758 10.5918V15.6453H15.5676Z" fill="#070F08"/>
<path d="M0.397461 5.26587H3.59632V15.6454H0.397461V5.26587Z" fill="#070F08"/>
<path d="M1.99554 0.0983887C0.972751 0.0983887 0.142822 0.934687 0.142822 1.96532C0.142822 2.99596 0.972751 3.84975 1.99554 3.84975C3.01832 3.84975 3.84825 2.99596 3.84825 1.96532C3.84761 0.934687 3.01768 0.0983887 1.99554 0.0983887V0.0983887Z" fill="#070F08"/>
</g>
<defs>
<clipPath id="clip0_29_863">
<rect width="15.4286" height="15.547" fill="white" transform="translate(0.142822 0.0983887)"/>
</clipPath>
</defs>
</svg>
