<svg width="15" height="15" viewBox="0 0 15 15" fill="none" xmlns="http://www.w3.org/2000/svg">
<path fill-rule="evenodd" clip-rule="evenodd" d="M4.62752 0.801758H10.0827C12.593 0.801758 14.6287 2.7175 14.6287 5.07988V10.2136C14.6287 12.576 12.593 14.4917 10.0827 14.4917H4.62752C2.11723 14.4917 0.081543 12.576 0.081543 10.2136V5.07988C0.081543 2.7175 2.11723 0.801758 4.62752 0.801758ZM10.0827 13.2079C11.8375 13.2079 13.2649 11.8646 13.2649 10.2132V5.07947C13.2649 3.42812 11.8375 2.08479 10.0827 2.08479H4.62751C2.87275 2.08479 1.44531 3.42812 1.44531 5.07947V10.2132C1.44531 11.8646 2.87275 13.2079 4.62751 13.2079H10.0827Z" fill="#070F08"/>
<path fill-rule="evenodd" clip-rule="evenodd" d="M3.71826 7.64661C3.71826 5.75654 5.34663 4.22412 7.35504 4.22412C9.36345 4.22412 10.9918 5.75654 10.9918 7.64661C10.9918 9.53668 9.36345 11.0691 7.35504 11.0691C5.34663 11.0691 3.71826 9.53668 3.71826 7.64661ZM5.08203 7.64675C5.08203 8.8258 6.10216 9.78581 7.35504 9.78581C8.60792 9.78581 9.62805 8.8258 9.62805 7.64675C9.62805 6.46685 8.60792 5.50769 7.35504 5.50769C6.10216 5.50769 5.08203 6.46685 5.08203 7.64675Z" fill="#070F08"/>
<ellipse cx="11.2646" cy="3.96752" rx="0.484619" ry="0.456041" fill="#070F08"/>
</svg>
