<svg width="13" height="11" viewBox="0 0 13 11" fill="none" xmlns="http://www.w3.org/2000/svg">
<path d="M12.8746 1.86948C12.4161 2.07366 11.9276 2.20899 11.4182 2.27471C11.9422 1.9571 12.3422 1.45799 12.5302 0.856407C12.0416 1.15211 11.5022 1.36099 10.9274 1.47755C10.4635 0.976098 9.80234 0.665527 9.08109 0.665527C7.68172 0.665527 6.55514 1.81863 6.55514 3.23224C6.55514 3.43563 6.57209 3.63121 6.6137 3.81739C4.51234 3.71335 2.65294 2.69089 1.40383 1.13334C1.18576 1.51745 1.05784 1.9571 1.05784 2.43038C1.05784 3.31907 1.50863 4.10684 2.18057 4.56292C1.77448 4.5551 1.37609 4.43541 1.03858 4.24687C1.03858 4.2547 1.03858 4.26487 1.03858 4.27503C1.03858 5.52201 1.91472 6.55777 3.06365 6.79637C2.85791 6.85348 2.63367 6.88086 2.40096 6.88086C2.23914 6.88086 2.07578 6.87147 1.92243 6.83705C2.24993 7.85325 3.17924 8.60034 4.28425 8.62459C3.42428 9.30754 2.33238 9.71902 1.15031 9.71902C0.943028 9.71902 0.744219 9.70964 0.54541 9.68382C1.66506 10.4168 2.99199 10.8354 4.42295 10.8354C9.07415 10.8354 11.6171 6.92388 11.6171 3.53342C11.6171 3.41999 11.6132 3.31047 11.6078 3.20173C12.1095 2.84031 12.531 2.38892 12.8746 1.86948Z" fill="#070F08"/>
</svg>
