<svg width="26" height="23" viewBox="0 0 26 23" fill="none" xmlns="http://www.w3.org/2000/svg">
<path d="M1.86721 12.7275L1.95347 12.5919L7.15628 4.45277C7.23232 4.33357 7.41107 4.34592 7.46863 4.47534C8.33779 6.42334 9.08783 8.84597 8.73645 10.3542C8.58645 10.9747 8.17548 11.8152 7.71312 12.5919C7.65356 12.7049 7.58779 12.8159 7.51792 12.9227C7.48508 12.972 7.42956 13.0008 7.36996 13.0008H2.01925C1.87538 13.0008 1.79116 12.8446 1.86721 12.7275Z" fill="#070F08"/>
<path d="M25.0577 14.2398V15.5282C25.0577 15.6021 25.0125 15.6679 24.9467 15.6967C24.544 15.8693 23.1652 16.5022 22.5919 17.2994C21.1289 19.3357 20.0111 22.2474 17.5124 22.2474H7.0883C3.39377 22.2474 0.399902 19.2433 0.399902 15.5364V15.4172C0.399902 15.3186 0.480036 15.2384 0.578658 15.2384H6.38968C6.50475 15.2384 6.58901 15.3453 6.57875 15.4583C6.53764 15.8364 6.6075 16.2227 6.78626 16.5741C7.13146 17.2748 7.84657 17.7124 8.61915 17.7124H11.4959V15.4665H8.65204C8.50613 15.4665 8.41986 15.298 8.50408 15.1788C8.53493 15.1316 8.56986 15.0823 8.60684 15.0268C8.87599 14.6446 9.26026 14.0508 9.64244 13.3747C9.90342 12.9186 10.1562 12.4316 10.3596 11.9425C10.4007 11.8542 10.4335 11.7638 10.4664 11.6754C10.5219 11.5192 10.5795 11.3733 10.6205 11.2275C10.6616 11.1042 10.6945 10.9747 10.7274 10.8535C10.824 10.4384 10.8651 9.99866 10.8651 9.54249C10.8651 9.36373 10.8568 9.17675 10.8404 8.99795C10.8322 8.80275 10.8075 8.60755 10.7829 8.41235C10.7664 8.23973 10.7356 8.0692 10.7027 7.89044C10.6616 7.62946 10.6041 7.37057 10.5383 7.1096L10.5158 7.01098C10.4664 6.83222 10.4253 6.66164 10.3678 6.48289C10.2055 5.92191 10.0185 5.37533 9.82124 4.86369C9.74933 4.66026 9.6671 4.46506 9.58493 4.26986C9.46368 3.976 9.34039 3.70889 9.22737 3.45613C9.16986 3.34106 9.12053 3.23626 9.07124 3.12942C9.01573 3.00818 8.95821 2.88697 8.90066 2.77186C8.85959 2.68351 8.8123 2.60133 8.77941 2.51915L8.42808 1.86982C8.37875 1.78146 8.46093 1.67666 8.5575 1.70337L10.7562 2.29929H10.7623C10.7664 2.29929 10.7685 2.30133 10.7706 2.30133L11.0603 2.38146L11.3788 2.47186L11.4959 2.50475V1.19791C11.4959 0.567065 12.0014 0.0554199 12.626 0.0554199C12.9384 0.0554199 13.2219 0.182797 13.4254 0.390353C13.6288 0.597908 13.7562 0.881464 13.7562 1.19791V3.13764L13.9904 3.20337C14.0089 3.20955 14.0274 3.21777 14.0439 3.23009C14.1014 3.27324 14.1836 3.33697 14.2884 3.41502C14.3706 3.4808 14.4589 3.56093 14.5658 3.64311C14.7775 3.81369 15.0302 4.03355 15.3076 4.28626C15.3815 4.35 15.4535 4.41573 15.5192 4.48151C15.8767 4.81435 16.2775 5.2048 16.6596 5.63631C16.7665 5.75751 16.8713 5.8808 16.9781 6.01026C17.085 6.14177 17.198 6.27124 17.2967 6.40071C17.4261 6.57329 17.5658 6.75204 17.6871 6.93906C17.7446 7.02742 17.8103 7.11782 17.8658 7.20617C18.022 7.44249 18.1597 7.68702 18.2912 7.93151C18.3467 8.04453 18.4042 8.16782 18.4535 8.28906C18.5994 8.61577 18.7145 8.94866 18.7884 9.28155C18.8111 9.35346 18.8275 9.43155 18.8357 9.50142V9.51782C18.8603 9.61649 18.8686 9.72129 18.8768 9.82813C18.9097 10.1692 18.8932 10.5103 18.8192 10.8535C18.7884 10.9994 18.7473 11.137 18.698 11.2829C18.6487 11.4227 18.5994 11.5685 18.5357 11.7062C18.4124 11.9918 18.2665 12.2775 18.0939 12.5446C18.0384 12.6432 17.9727 12.748 17.9069 12.8466C17.835 12.9514 17.761 13.0501 17.6953 13.1467C17.6049 13.27 17.5083 13.3994 17.4096 13.5144C17.3213 13.6357 17.2309 13.7569 17.1323 13.8638C16.9946 14.0261 16.8631 14.1802 16.7254 14.3282C16.6432 14.4248 16.5548 14.5234 16.4644 14.6117C16.3761 14.7104 16.2857 14.7987 16.2035 14.8809C16.0658 15.0186 15.9507 15.1254 15.8542 15.2138L15.6281 15.4213C15.5952 15.4501 15.5521 15.4665 15.5069 15.4665H13.7562V17.7124H15.959C16.4521 17.7124 16.9206 17.5378 17.2987 17.2172C17.4281 17.1042 17.9932 16.6152 18.6611 15.8775C18.6836 15.8528 18.7124 15.8344 18.7453 15.8261L24.8296 14.0672C24.9426 14.0343 25.0577 14.1206 25.0577 14.2398Z" fill="#070F08"/>
</svg>
