<svg width="397" height="426" viewBox="0 0 397 426" fill="none" xmlns="http://www.w3.org/2000/svg">
<path fill-rule="evenodd" clip-rule="evenodd" d="M202.613 1.19367e-05C239.567 0.0243699 266.619 33.5544 296.643 55.5785C325.061 76.4248 356.283 94.2481 373.514 125.365C391.602 158.029 401.316 196.45 395.141 233.45C389.036 270.029 360.573 296.259 339.902 326.763C316.438 361.389 305.741 414.906 265.633 424.561C225.103 434.318 191.264 392.019 154.89 371.302C126.727 355.26 96.7984 342.467 76.5201 316.845C56.6592 291.751 52.9064 259.066 42.0668 228.749C27.9933 189.387 -11.6394 151.13 3.31984 112.11C18.0799 73.6106 73.0658 75.3902 108.504 55.4545C140.882 37.2407 165.656 -0.0243476 202.613 1.19367e-05Z" fill="url(#paint0_linear)"/>
<defs>
<linearGradient id="paint0_linear" x1="198.5" y1="0" x2="198.5" y2="426" gradientUnits="userSpaceOnUse">
<stop stop-color="#2EAD69"/>
<stop offset="1" stop-color="#244058"/>
</linearGradient>
</defs>
</svg>
