<svg width="402" height="456" viewBox="0 0 402 456" fill="none" xmlns="http://www.w3.org/2000/svg">
<path fill-rule="evenodd" clip-rule="evenodd" d="M203.699 7.76067C236.316 -3.02328 272.591 -3.26737 303.949 11.4645C336.769 26.8836 363.708 56.3465 381.067 91.0896C398.316 125.61 404.769 166.25 400.928 205.556C397.28 242.895 383.35 279.406 360.023 306.441C338.679 331.177 301.379 326.822 277.552 348.542C246.993 376.399 240.749 433.851 203.699 448.941C166.976 463.898 118.894 454.744 90.4955 424.727C61.5768 394.159 73.9823 339.773 60.7301 297.822C50.3992 265.12 29.0004 239.141 21.2592 205.556C11.7927 164.487 -14.7131 112.471 10.7628 81.0429C38.6513 46.6382 93.3676 83.0217 132.694 68.0845C161.33 57.2078 174.697 17.3492 203.699 7.76067Z" fill="url(#paint0_linear)"/>
<defs>
<linearGradient id="paint0_linear" x1="201" y1="0" x2="201" y2="456" gradientUnits="userSpaceOnUse">
<stop stop-color="#2EAD69"/>
<stop offset="1" stop-color="#244058"/>
</linearGradient>
</defs>
</svg>
