<svg width="239" height="212" viewBox="0 0 239 212" fill="none" xmlns="http://www.w3.org/2000/svg">
<path d="M206.789 29.815L195.142 88.805C195.118 88.923 195.127 89.045 195.167 89.1586C195.206 89.2721 195.276 89.3729 195.368 89.4504C195.46 89.528 195.571 89.5794 195.689 89.5994C195.808 89.6194 195.93 89.6072 196.042 89.564L208.494 84.871C208.524 85.044 208.554 85.223 208.582 85.389C211.572 104.23 209.381 123.529 202.244 141.22C195.106 158.911 183.291 174.327 168.064 185.818C152.836 197.308 134.77 204.44 115.799 206.45C96.829 208.46 77.6693 205.272 60.372 197.227C78.5094 207.286 99.1074 212.048 119.819 210.97C140.531 209.892 160.524 203.019 177.519 191.132C194.515 179.245 207.83 162.824 215.947 143.738C224.064 124.653 226.658 103.671 223.431 83.184L237.772 84.348C237.894 84.3576 238.015 84.334 238.125 84.2797C238.234 84.2255 238.326 84.1426 238.392 84.0399C238.458 83.9372 238.494 83.8186 238.498 83.6967C238.501 83.5749 238.472 83.4544 238.412 83.348L208.034 29.611C207.966 29.4917 207.863 29.3961 207.739 29.337C207.615 29.2779 207.476 29.2581 207.341 29.2803C207.205 29.3025 207.08 29.3657 206.981 29.4612C206.882 29.5568 206.815 29.6803 206.789 29.815Z" fill="url(#paint0_linear)"/>
<path d="M184.544 152.884C175.136 164.85 163.053 174.444 149.267 180.896C135.48 187.348 120.373 190.479 105.158 190.037C89.9425 189.595 75.0426 185.593 61.6537 178.352C48.2648 171.11 36.7596 160.831 28.0616 148.339C19.3635 135.848 13.7146 121.491 11.5681 106.421C9.42172 91.3516 10.8375 75.9886 15.702 61.5651C20.5664 47.1416 28.744 34.0591 39.5786 23.3674C50.4132 12.6757 63.6031 4.67249 78.09 0C59.4223 4.58804 42.4199 14.3306 29.0226 28.1163C15.6252 41.902 6.37229 59.1757 2.31937 77.9668C-1.73356 96.758 -0.423305 116.31 6.10068 134.392C12.6247 152.475 24.0997 168.359 39.2167 180.234C54.3337 192.109 72.4839 199.496 91.5969 201.552C110.71 203.608 130.016 200.251 147.313 191.863C164.61 183.475 179.201 170.395 189.422 154.114C199.642 137.833 205.081 119.007 205.118 99.784C203.745 119.148 196.576 137.65 184.544 152.884Z" fill="url(#paint1_linear)"/>
<path d="M163.137 50.0581C157.138 57.6988 150.316 64.656 142.794 70.8041C142.718 70.8666 142.656 70.9454 142.614 71.0346C142.572 71.1238 142.55 71.2214 142.55 71.3201V166.771C142.55 167.539 142.306 168.287 141.853 168.907C141.4 169.528 140.762 169.988 140.031 170.222L139.953 170.247C139.411 170.421 138.836 170.464 138.274 170.373C137.712 170.283 137.179 170.06 136.72 169.725C136.26 169.389 135.886 168.95 135.628 168.443C135.37 167.935 135.236 167.374 135.236 166.805V77.8151C135.236 77.6927 135.203 77.5727 135.14 77.468C135.077 77.3632 134.986 77.2779 134.877 77.2213C134.769 77.1646 134.647 77.1389 134.525 77.1468C134.403 77.1547 134.285 77.1959 134.185 77.2661C124.225 84.1239 113.367 89.5753 101.918 93.4661C101.786 93.5105 101.671 93.5955 101.589 93.7089C101.508 93.8223 101.464 93.9584 101.464 94.0981V171.187C101.464 171.722 101.345 172.251 101.116 172.734C100.887 173.218 100.554 173.645 100.141 173.985C99.7272 174.325 99.2435 174.568 98.7245 174.699C98.2055 174.829 97.664 174.843 97.139 174.739L96.997 174.711C96.1782 174.549 95.4412 174.107 94.9121 173.461C94.3831 172.815 94.095 172.006 94.097 171.171C94.116 162.871 94.135 151.696 94.149 151.704V96.7211C94.149 96.6185 94.1254 96.5173 94.08 96.4253C94.0346 96.3334 93.9686 96.2531 93.8872 96.1907C93.8058 96.1283 93.7111 96.0856 93.6105 96.0657C93.5099 96.0458 93.406 96.0493 93.307 96.0761L92.976 96.1631C83.6358 98.6176 75.3715 104.096 69.4737 111.743C63.5759 119.391 60.3768 128.776 60.376 138.433V151.094C60.3778 151.801 60.1721 152.494 59.7845 153.085C59.3969 153.677 58.8443 154.142 58.1952 154.423C57.546 154.703 56.8288 154.788 56.1322 154.665C55.4357 154.543 54.7903 154.219 54.276 153.733C39.9304 139.945 30.809 121.61 28.4656 101.851C26.1222 82.0924 30.7018 62.1323 41.4243 45.3713C52.1468 28.6103 68.3488 16.0854 87.2701 9.93025C106.191 3.77509 126.661 4.37051 145.193 11.6151C130.602 4.67879 114.421 1.77302 98.3281 3.19922C82.2354 4.62541 66.8175 10.3316 53.6737 19.7258C40.53 29.1201 30.1394 41.8601 23.5797 56.6243C17.0201 71.3884 14.5304 87.6388 16.369 103.69C18.2076 119.74 24.3075 135.007 34.0359 147.905C43.7643 160.804 56.7667 170.864 71.6943 177.043C86.6219 183.221 102.931 185.293 118.929 183.044C134.928 180.794 150.032 174.304 162.677 164.248C167.088 161.204 171.203 157.751 174.965 153.934L175.36 153.511C175.983 152.843 176.329 151.963 176.327 151.049V33.3151C176.327 33.3151 176.327 32.8951 176.327 32.3381C176.328 32.1892 176.279 32.0442 176.189 31.9259C176.098 31.8077 175.971 31.7229 175.827 31.685C175.683 31.6471 175.53 31.6582 175.393 31.7165C175.256 31.7748 175.143 31.877 175.07 32.0071C171.591 38.3394 167.6 44.3765 163.137 50.0581Z" fill="url(#paint2_linear)"/>
<defs>
<linearGradient id="paint0_linear" x1="60.372" y1="120.196" x2="238.498" y2="120.196" gradientUnits="userSpaceOnUse">
<stop stop-color="#403BEB"/>
<stop offset="1" stop-color="#22B7A0"/>
</linearGradient>
<linearGradient id="paint1_linear" x1="0.0141603" y1="101.07" x2="205.118" y2="101.07" gradientUnits="userSpaceOnUse">
<stop stop-color="#403BEB"/>
<stop offset="1" stop-color="#22B7A0"/>
</linearGradient>
<linearGradient id="paint2_linear" x1="15.7808" y1="93.3857" x2="176.327" y2="93.3857" gradientUnits="userSpaceOnUse">
<stop stop-color="#403BEB"/>
<stop offset="1" stop-color="#22B7A0"/>
</linearGradient>
</defs>
</svg>
