<svg width="154" height="153" fill="none" xmlns="http://www.w3.org/2000/svg"><path d="M134.375 86a2.391 2.391 0 00-2.391 2.39v16.752h-3.803c-.938-8.292-8.419-14.254-16.71-13.316a15.109 15.109 0 00-13.316 13.316H48.312V35.814h83.672v7.518a2.391 2.391 0 004.782 0v-9.91a2.39 2.39 0 00-2.391-2.39H45.922a2.39 2.39 0 00-2.39 2.39v2.392H16.153c-6.002.007-10.865 4.87-10.873 10.872v3.471a2.39 2.39 0 002.39 2.39h2.781l-1.824 21.91A10.865 10.865 0 00.5 84.937v20.206a2.39 2.39 0 002.39 2.39h4.842c.655 8.549 8.117 14.948 16.666 14.293a15.525 15.525 0 0014.292-14.293c.022 0 .038.012.06.012h4.781a2.39 2.39 0 002.39 2.391h52.451c1.703 8.171 9.708 13.415 17.88 11.712a15.112 15.112 0 0011.711-11.712h6.412a2.392 2.392 0 002.391-2.391V88.391A2.391 2.391 0 00134.375 86zM23.211 117.095c-5.941 0-10.758-4.817-10.758-10.758 0-5.941 4.817-10.758 10.758-10.758 5.941 0 10.758 4.817 10.758 10.758-.007 5.939-4.82 10.751-10.758 10.758zm20.32-14.344H38.75c-.14.015-.279.042-.414.084-1.922-8.353-10.252-13.566-18.605-11.644a15.52 15.52 0 00-11.624 11.56H5.281V84.936a6.099 6.099 0 016.092-6.091H43.53v23.906zm0-28.688H13.457l1.793-21.515h28.281v21.516zm0-26.296H10.063v-1.081a6.099 6.099 0 016.09-6.091h27.378v7.172zm79.953 59.67a10.312 10.312 0 01-10.314 9.734h-.002a10.33 10.33 0 01-10.156-8.565 2.15 2.15 0 00-.122-2.326c.32-5.687 5.189-10.038 10.876-9.719 5.687.32 10.038 5.189 9.718 10.876z" fill="#6FBA6D"/><path d="M131.984 50.157H98.516a2.39 2.39 0 000 4.782h33.468a2.39 2.39 0 100-4.782zm4.782 26.297H84.172a2.39 2.39 0 000 4.781h52.594a2.39 2.39 0 000-4.78zm-4.782-14.344h-26.296a2.39 2.39 0 100 4.782h26.296a2.39 2.39 0 100-4.782zm9.563-7.172h4.781a2.391 2.391 0 000-4.78h-4.781a2.391 2.391 0 000 4.78zm7.172 21.516h-4.781a2.39 2.39 0 100 4.781h4.781a2.39 2.39 0 000-4.78zm2.39-14.344h-9.562a2.391 2.391 0 000 4.782h9.562a2.39 2.39 0 100-4.782z" fill="#6FBA6D"/></svg>