<svg width="111" height="122" fill="none" xmlns="http://www.w3.org/2000/svg"><path d="M111 0v82c0 22.091-17.909 40-40 40H40c-22.091 0-40-17.909-40-40V0h111z" fill="#7183E5"/><path d="M65.147 100H28.12c-3.925 0-7.12-2.906-7.12-6.48V28.48c0-3.575 3.195-6.48 7.12-6.48h37.027a7.65 7.65 0 013.687.934c.672.37.887 1.167.48 1.78-.409.612-1.285.806-1.955.435a4.614 4.614 0 00-2.212-.56H28.12c-2.356 0-4.272 1.745-4.272 3.889V93.52c0 2.144 1.916 3.887 4.272 3.887h37.027c2.354 0 4.271-1.743 4.271-3.887V80.777c0-.716.639-1.295 1.426-1.295.784 0 1.423.58 1.423 1.295V93.52c0 3.574-3.195 6.48-7.12 6.48z" fill="#fff"/><path d="M34.488 24.58v.515c0 .428.35.776.778.776h19.178a.776.776 0 00.776-.776v-.516H34.488zm19.956 3.872H35.266a3.366 3.366 0 01-3.368-3.357V23.29c0-.713.579-1.29 1.295-1.29h23.324c.716 0 1.295.577 1.295 1.29v1.805a3.366 3.366 0 01-3.368 3.357zM36.512 73.628c-1.04 0-1.388.815-1.47 1.064-.08.25-.28 1.112.563 1.721l1.813 1.314a4.096 4.096 0 011.504 4.606l-.693 2.126c-.321.987.349 1.567.562 1.72.212.154.974.61 1.817 0l1.815-1.312a4.14 4.14 0 014.865 0L49.1 86.18c.847.61 1.604.153 1.817 0 .215-.154.885-.734.562-1.721l-.693-2.126a4.102 4.102 0 011.504-4.606l1.815-1.314c.843-.609.642-1.471.56-1.72-.081-.25-.427-1.065-1.47-1.065h-2.242a4.127 4.127 0 01-3.936-2.848l-.693-2.123c-.323-.987-1.206-1.063-1.47-1.063s-1.148.076-1.47 1.063l-.692 2.123a4.127 4.127 0 01-3.936 2.848h-2.245zm3.188 15.44a4.134 4.134 0 01-2.432-.8c-1.477-1.07-2.068-2.877-1.504-4.609l.693-2.124a1.533 1.533 0 00-.56-1.72l-1.815-1.313c-1.477-1.07-2.068-2.877-1.504-4.608.564-1.728 2.107-2.846 3.934-2.846h2.245a1.54 1.54 0 001.47-1.064l.692-2.125c.566-1.729 2.11-2.848 3.936-2.848 1.827.002 3.37 1.12 3.935 2.848l.693 2.125a1.544 1.544 0 001.471 1.065h2.243c1.826 0 3.37 1.117 3.936 2.845.564 1.73-.027 3.538-1.504 4.608l-1.815 1.313a1.534 1.534 0 00-.562 1.72l.695 2.124c.562 1.732-.027 3.54-1.504 4.608a4.093 4.093 0 01-4.865 0l-1.813-1.312a1.55 1.55 0 00-1.82 0l-1.814 1.312a4.132 4.132 0 01-2.43.802z" fill="#fff"/><path d="M62.841 77.15a5 5 0 01-2.937-.968l-.844-.61a1.285 1.285 0 01-.286-1.803 1.3 1.3 0 011.81-.285l.842.609c1.045.756 2.146.495 2.83 0 .683-.494 1.272-1.458.873-2.678l-.902-2.768a4.952 4.952 0 011.815-5.565l2.364-1.71c1.043-.756 1.136-1.879.874-2.679-.26-.802-1-1.656-2.288-1.656H64.07a4.982 4.982 0 01-4.753-3.44l-.904-2.766c-.397-1.222-1.443-1.657-2.288-1.657-.845 0-1.891.435-2.29 1.657l-.902 2.766a4.985 4.985 0 01-4.752 3.44h-2.923c-1.289 0-2.028.854-2.288 1.656-.262.8-.169 1.923.874 2.68l.233.17c.58.418.707 1.225.285 1.802a1.3 1.3 0 01-1.81.283l-.233-.168c-1.783-1.291-2.495-3.475-1.815-5.565.681-2.09 2.548-3.44 4.754-3.44h2.922a2.4 2.4 0 002.288-1.656l.902-2.766c.682-2.09 2.549-3.44 4.755-3.44s4.07 1.352 4.753 3.44l.903 2.768a2.399 2.399 0 002.289 1.655h2.922c2.206 0 4.07 1.35 4.754 3.44.68 2.089-.032 4.273-1.817 5.564l-2.364 1.71a2.392 2.392 0 00-.875 2.679l.904 2.768c.681 2.088-.03 4.274-1.816 5.563a4.99 4.99 0 01-2.937.97zm15.703-17.83a5.603 5.603 0 01-3.298-1.087l-2.753-1.993a1.285 1.285 0 01-.287-1.802 1.3 1.3 0 011.81-.285l2.754 1.993c1.309.945 2.691.622 3.547 0 .859-.62 1.597-1.83 1.098-3.36l-1.052-3.226a5.558 5.558 0 012.037-6.246l2.755-1.993c1.309-.947 1.424-2.356 1.096-3.362-.329-1.002-1.253-2.076-2.87-2.076h-3.405a5.594 5.594 0 01-5.336-3.86L73.588 28.8c-.5-1.532-1.81-2.079-2.87-2.079s-2.37.547-2.872 2.079l-1.052 3.224a5.592 5.592 0 01-5.335 3.859h-3.405c-1.616 0-2.542 1.074-2.87 2.076-.327 1.006-.212 2.415 1.097 3.362l2.755 1.993a1.29 1.29 0 01.287 1.802 1.296 1.296 0 01-1.81.286l-2.755-1.993c-2.003-1.449-2.805-3.901-2.037-6.246.763-2.345 2.857-3.86 5.333-3.86h3.405a3.008 3.008 0 002.87-2.077l1.055-3.224c.763-2.345 2.857-3.86 5.333-3.86s4.57 1.515 5.336 3.86l1.052 3.224a3.012 3.012 0 002.87 2.078h3.407c2.474 0 4.568 1.514 5.334 3.86.765 2.344-.035 4.796-2.038 6.245l-2.755 1.993a2.988 2.988 0 00-1.096 3.36l1.052 3.226c.766 2.345-.034 4.797-2.037 6.245a5.602 5.602 0 01-3.298 1.088zM48.388 36.528H31.525a1.291 1.291 0 01-1.294-1.29c0-.712.579-1.289 1.294-1.289h16.863c.716 0 1.297.577 1.297 1.29 0 .713-.58 1.29-1.297 1.29zm0 6.182H31.525a1.291 1.291 0 110-2.581h16.863c.716 0 1.297.576 1.297 1.289s-.58 1.291-1.297 1.291zm0 6.18H31.525a1.293 1.293 0 01-1.294-1.29c0-.714.579-1.292 1.294-1.292h16.863c.716 0 1.297.578 1.297 1.291s-.58 1.292-1.297 1.292zm-9.328 6.18h-7.535a1.293 1.293 0 01-1.294-1.291c0-.712.579-1.29 1.294-1.29h7.535c.716 0 1.295.579 1.295 1.29 0 .712-.58 1.29-1.295 1.29zm-2.074 6.182h-5.46a1.291 1.291 0 110-2.581h5.46c.716 0 1.297.577 1.297 1.29 0 .712-.58 1.29-1.297 1.29zm-1.036 6.179h-4.425a1.291 1.291 0 110-2.58h4.425c.715 0 1.296.578 1.296 1.29 0 .713-.58 1.29-1.296 1.29z" fill="#fff"/></svg>