<svg width="90" height="96" fill="none" xmlns="http://www.w3.org/2000/svg"><path d="M0 8h60c16.569 0 30 13.431 30 30v19c0 16.569-13.431 30-30 30H0V8z" fill="#7183E5"/><path d="M47.728 70c-.427 0-.79-.15-1.088-.448a1.481 1.481 0 01-.448-1.088V35.312L36.464 42.8a1.36 1.36 0 01-.896.32c-.512 0-.939-.235-1.28-.704L31.6 38.96c-.213-.341-.32-.661-.32-.96 0-.512.235-.939.704-1.28L46.32 25.648c.384-.299.917-.448 1.6-.448h5.632c.47 0 .832.15 1.088.448.299.256.448.619.448 1.088v41.728c0 .427-.15.79-.448 1.088-.256.299-.619.448-1.088.448h-5.824z" fill="#fff"/></svg>