<svg width="111" height="122" fill="none" xmlns="http://www.w3.org/2000/svg"><path d="M111 0v82c0 22.091-17.909 40-40 40H40c-22.091 0-40-17.909-40-40V0h111z" fill="#7183E5"/><path d="M66.89 82.171H49.505c-.738 0-1.335-.499-1.335-1.114 0-.615.597-1.114 1.335-1.114H66.89c.738 0 1.337.499 1.337 1.114 0 .615-.6 1.114-1.337 1.114zM41.835 64.714a.592.592 0 01-.399-.14.592.592 0 01-.14-.4V48.868c0-.172.046-.305.14-.398a.542.542 0 01.399-.165h5.954c1.766 0 3.157.43 4.173 1.29 1.015.86 1.523 2.102 1.523 3.727 0 1.626-.508 2.868-1.523 3.727-1 .844-2.391 1.266-4.173 1.266h-4.15v5.86c0 .157-.054.29-.163.4a.592.592 0 01-.399.14h-1.242zm5.837-8.369c1.14 0 2-.258 2.578-.773.594-.516.891-1.266.891-2.25 0-.985-.289-1.736-.867-2.251-.578-.532-1.446-.797-2.602-.797h-4.056v6.071h4.056zm16.048 9.12a.542.542 0 01-.398-.165.507.507 0 01-.14-.375v-1.852c-2.33 0-4.103-.5-5.322-1.5-1.22-1-1.93-2.524-2.133-4.571a6.882 6.882 0 01-.024-.68c0-.454.008-.774.024-.961.109-1.985.812-3.493 2.11-4.525 1.312-1.031 3.094-1.547 5.344-1.547v-1.617c0-.172.047-.305.14-.399a.592.592 0 01.4-.14h1.218a.47.47 0 01.376.163.47.47 0 01.164.376v1.617c2.25 0 4.024.516 5.321 1.547 1.313 1.032 2.016 2.54 2.11 4.525.031.406.047.68.047.82 0 .14-.016.414-.047.82-.172 2.048-.875 3.572-2.11 4.572-1.235 1-3.008 1.5-5.321 1.5v1.852a.47.47 0 01-.165.375.47.47 0 01-.375.164H63.72zm-.539-14.183c-1.578 0-2.797.336-3.657 1.008-.844.672-1.328 1.727-1.453 3.164a10.97 10.97 0 000 1.43c.078 1.438.547 2.493 1.406 3.165.876.672 2.11 1.008 3.704 1.008v-9.775zm2.274 9.775c3.266 0 4.978-1.39 5.134-4.173a7.95 7.95 0 00.023-.726c0-.313-.007-.547-.023-.704-.156-1.437-.656-2.492-1.5-3.164-.844-.672-2.055-1.008-3.634-1.008v9.775zM73.654 76.6h-32.02c-.697 0-1.261-.498-1.261-1.114 0-.615.564-1.115 1.26-1.115h32.021c.697 0 1.261.5 1.261 1.115 0 .616-.564 1.114-1.26 1.114z" fill="#fff"/><path d="M83.742 100H28.2c-.662 0-1.2-.585-1.2-1.305v-75.39c0-.72.538-1.305 1.2-1.305h11.384c.663 0 1.2.585 1.2 1.305s-.537 1.3-1.2 1.3H29.4V97.39h53.142V24.605H39.584c-.663 0-.717-.58-.717-1.3 0-.72.054-1.305.717-1.305h44.158c.663 0 1.2.585 1.2 1.305v75.39c0 .72-.537 1.305-1.2 1.305z" fill="#fff"/><path d="M32.571 100l-.012-28.977v-46.78h-2.202l-1.129-.014v-.558l.007-1.67h4.444c.62 0 1.12.501 1.12 1.12V100h-2.228z" fill="#fff"/></svg>