<svg width="90" height="96" fill="none" xmlns="http://www.w3.org/2000/svg"><path d="M0 8h60c16.569 0 30 13.431 30 30v19c0 16.569-13.431 30-30 30H0V8z" fill="#7183E5"/><path d="M34.416 70c-.427 0-.79-.15-1.088-.448a1.481 1.481 0 01-.448-1.088V65.2c0-1.152.533-2.155 1.6-3.008l10.112-10.048c4.395-3.456 7.445-6.144 9.152-8.064 1.75-1.963 2.624-3.883 2.624-5.76 0-2.005-.555-3.584-1.664-4.736-1.067-1.152-2.688-1.728-4.864-1.728-2.133 0-3.819.64-5.056 1.92-1.237 1.237-2.005 2.859-2.304 4.864-.128.512-.363.896-.704 1.152a2.13 2.13 0 01-1.152.32h-5.696c-.384 0-.704-.128-.96-.384a1.228 1.228 0 01-.384-.896 14.655 14.655 0 012.048-7.04c1.28-2.219 3.136-3.99 5.568-5.312 2.432-1.365 5.29-2.048 8.576-2.048 3.413 0 6.293.597 8.64 1.792 2.39 1.152 4.181 2.752 5.376 4.8 1.195 2.048 1.792 4.373 1.792 6.976 0 2.859-.81 5.44-2.432 7.744-1.579 2.304-4.01 4.779-7.296 7.424l-9.088 9.216h18.24c.47 0 .832.15 1.088.448.299.256.448.619.448 1.088v4.544c0 .427-.15.79-.448 1.088-.256.299-.619.448-1.088.448H34.416z" fill="#fff"/></svg>