<svg width="111" height="122" fill="none" xmlns="http://www.w3.org/2000/svg"><path d="M111 0v82c0 22.091-17.909 40-40 40H40c-22.091 0-40-17.909-40-40V0h111z" fill="#7183E5"/><path d="M54.172 94.43H23.294A1.294 1.294 0 0122 93.139V31.245c0-.445.23-.858.608-1.095l12.694-7.953a1.28 1.28 0 01.686-.195h37.076c.715 0 1.293.578 1.293 1.292V47.8a1.293 1.293 0 11-2.585 0V24.586h-35.41l-11.776 7.375v59.883h29.586a1.293 1.293 0 010 2.587z" fill="#fff"/><path d="M27.794 29.95h6.901v-4.32l-6.901 4.32zm8.193 2.587H23.293a1.291 1.291 0 01-.686-2.387l12.694-7.953a1.294 1.294 0 011.98 1.097v7.95c0 .715-.58 1.293-1.294 1.293zM78.82 100H29.05c-.715 0-1.293-.58-1.293-1.294v-5.568a1.293 1.293 0 112.587 0v4.273h47.183V83.514a1.292 1.292 0 112.585 0v15.192c0 .714-.576 1.294-1.29 1.294zm0-59.396a1.293 1.293 0 01-1.294-1.293v-9.156h-4.459a1.293 1.293 0 010-2.587h5.753c.715 0 1.29.578 1.29 1.293v10.45a1.29 1.29 0 01-1.29 1.293zm-14.525-1.96H32.053a1.293 1.293 0 110-2.585h32.242a1.291 1.291 0 110 2.585zm0 6.6H32.053a1.294 1.294 0 010-2.586h32.242a1.293 1.293 0 010 2.586zm0 6.6H32.053a1.293 1.293 0 110-2.587h32.242a1.293 1.293 0 010 2.587zm0 6.6H32.053a1.293 1.293 0 110-2.587h32.242a1.293 1.293 0 010 2.587zm0 6.598H32.053a1.293 1.293 0 110-2.587h32.242a1.293 1.293 0 010 2.587zm0 6.6H32.053a1.293 1.293 0 110-2.587h32.242a1.293 1.293 0 010 2.587z" fill="#fff"/><path d="M62.375 90.34l5.505 2.478 15.1-33.532-5.504-2.479-15.1 33.533zm6.153 5.482a1.31 1.31 0 01-.53-.114l-7.865-3.542c-.312-.14-.556-.4-.676-.72a1.288 1.288 0 01.03-.989L75.65 54.566a1.29 1.29 0 011.71-.649l7.863 3.542c.313.14.557.4.677.72.123.32.111.677-.03.99l-16.162 35.89a1.292 1.292 0 01-1.179.763z" fill="#fff"/><path d="M77.42 53.946l7.74 3.485.844-1.87-7.743-3.486-.84 1.87zm8.387 6.488c-.176 0-.356-.036-.529-.114l-10.1-4.547a1.295 1.295 0 01-.648-1.712l1.905-4.227a1.292 1.292 0 011.71-.648l10.099 4.547a1.292 1.292 0 01.648 1.71l-1.904 4.23a1.293 1.293 0 01-1.181.761z" fill="#fff"/><path d="M80.445 50.22l5.503 2.479 1.108-2.46a.418.418 0 00-.208-.551l-4.745-2.136a.418.418 0 00-.551.209l-1.107 2.46zm6.151 5.482a1.29 1.29 0 01-.53-.114l-7.86-3.54a1.292 1.292 0 01-.649-1.71l1.637-3.64a3.006 3.006 0 013.972-1.505l4.745 2.136a3.007 3.007 0 011.505 3.971l-1.64 3.64a1.3 1.3 0 01-1.18.762zM62.327 93.155l.554 3.413 2.924-1.847-3.478-1.566zM61.918 100c-.182 0-.362-.038-.53-.116a1.286 1.286 0 01-.745-.972l-1.253-7.718c-.078-.468.11-.944.49-1.232.374-.29.878-.35 1.316-.153l7.862 3.54a1.292 1.292 0 01.161 2.272l-6.61 4.178c-.21.133-.448.2-.691.2z" fill="#fff"/></svg>