<svg width="50" height="29" fill="none" xmlns="http://www.w3.org/2000/svg"><path d="M12.5 8.286h4.167v4.143h4.166v4.142h-4.166v4.143H12.5v-4.143H8.333V12.43H12.5V8.286zm26.042 0c.828 0 1.623.327 2.21.91a3.098 3.098 0 010 4.394 3.134 3.134 0 01-4.42 0 3.098 3.098 0 010-4.394 3.134 3.134 0 012.21-.91zm-6.25 6.214c.828 0 1.623.327 2.21.91a3.098 3.098 0 010 4.394 3.134 3.134 0 01-4.42 0 3.098 3.098 0 010-4.394 3.134 3.134 0 012.21-.91zM35.417 0c3.867 0 7.577 1.528 10.312 4.247A14.458 14.458 0 0150 14.5c0 3.846-1.536 7.534-4.271 10.253A14.626 14.626 0 0135.417 29 14.542 14.542 0 0125 24.65 14.543 14.543 0 0114.583 29a14.626 14.626 0 01-10.312-4.247A14.458 14.458 0 010 14.5c0-3.846 1.536-7.534 4.271-10.253A14.626 14.626 0 0114.583 0h20.834zM14.583 4.143a10.447 10.447 0 00-7.365 3.033A10.327 10.327 0 004.167 14.5a10.33 10.33 0 003.05 7.324 10.447 10.447 0 007.366 3.033c3.417 0 6.438-1.636 8.334-4.143h4.166a10.426 10.426 0 008.334 4.143c2.762 0 5.412-1.091 7.365-3.033a10.327 10.327 0 003.051-7.324 10.33 10.33 0 00-3.05-7.324 10.447 10.447 0 00-7.366-3.033H14.583z" fill="url(#paint0_linear_304:5)"/><defs><linearGradient id="paint0_linear_304:5" x1="0" y1="15" x2="50" y2="15" gradientUnits="userSpaceOnUse"><stop stop-color="#B5179E"/><stop offset="1" stop-color="#22B7A0"/></linearGradient></defs></svg>