<svg width="106" height="44" fill="none" xmlns="http://www.w3.org/2000/svg"><path d="M33.527 12.714H7.47c-.605 0-1.094-.575-1.094-1.285s.49-1.286 1.094-1.286h26.25c.604 0 1.093-.575 1.093-1.286 0-2.13-1.468-3.857-3.28-3.857H6.374C3.958 5 2 7.302 2 10.143v25.714C2 38.697 3.958 41 6.375 41h27.152C35.443 41 37 39.27 37 37.143V16.57c0-2.127-1.557-3.857-3.473-3.857zm-3.09 16.715c-1.207 0-2.187-1.152-2.187-2.572 0-1.42.98-2.571 2.188-2.571 1.207 0 2.187 1.151 2.187 2.571 0 1.42-.98 2.572-2.188 2.572zM41.92 15.328V6.112c0-2.448 1.224-3.672 3.672-3.672h6.768l1.08.84v.984h-7.872c-1.088 0-1.632.544-1.632 1.632v9.648c0 1.088.544 1.632 1.632 1.632h7.872v.984l-1.08.84h-6.768c-2.448 0-3.672-1.224-3.672-3.672zM55.728 19v-8.28h3.924c1.224 0 1.836.612 1.836 1.836v1.32c0 1.04-.444 1.64-1.332 1.8l1.572 3.084-.132.24h-.852l-1.668-3.288h-2.34V19h-1.008zm1.008-4.2h2.928c.544 0 .816-.272.816-.816v-1.536c0-.544-.272-.816-.816-.816h-2.928V14.8zm5.828-3.864l.132-.216h.852l2.256 4.188 2.256-4.188h.852l.132.216-2.736 4.992V19H65.3v-3.072l-2.736-4.992zM70.365 19v-8.28h3.924c1.224 0 1.836.612 1.836 1.836v1.56c0 1.224-.612 1.836-1.836 1.836h-2.916V19h-1.008zm1.008-3.96h2.928c.544 0 .816-.272.816-.816v-1.776c0-.544-.272-.816-.816-.816h-2.928v3.408zm5.759-3.408v-.912h6.528v.912H80.9V19h-1.008v-7.368h-2.76zm7.773 5.532v-4.608c0-1.224.612-1.836 1.836-1.836h2.808c1.224 0 1.836.612 1.836 1.836v4.608c0 1.224-.612 1.836-1.836 1.836h-2.808c-1.224 0-1.836-.612-1.836-1.836zm1.008.108c0 .544.272.816.816.816h2.832c.544 0 .816-.272.816-.816v-4.824c0-.544-.272-.816-.816-.816H86.73c-.544 0-.816.272-.816.816v4.824zm-44.217 5.672l.36-.504h2.016l3.168 14.352h.336l3.408-12.6h2.376l3.408 12.6h.336l3.168-14.352h1.992l.36.504L59 39h-4.008L52.16 28.32 49.352 39h-4.008l-3.648-16.056zm21.906 15.762l3.08-9.366h2.282l3.066 9.366-.182.294h-1.19l-.728-2.296h-4.214L64.988 39h-1.19l-.196-.294zm2.52-3.29h3.402l-1.554-4.788h-.294l-1.554 4.788zM73.537 39v-9.66h1.428v8.372H79.5V39h-5.964zm7.533 0v-9.66h1.428v8.372h4.536V39H81.07zm7.533 0v-9.66h6.384v1.288h-4.956v2.688h4.536v1.288h-4.536v3.108h4.956V39h-6.384zm7.417-8.372V29.34h7.7v1.288h-3.136V39h-1.428v-8.372H96.02z" fill="#FEBF32"/></svg>