<svg width="111" height="122" viewBox="0 0 111 122" fill="none" xmlns="http://www.w3.org/2000/svg">
<path d="M111 0L111 82C111 104.091 93.0914 122 71 122L40 122C17.9086 122 3.07942e-06 104.091 4.04506e-06 82L7.62939e-06 -4.85196e-06L111 0Z" fill="#7183E5"/>
<path d="M29.5714 91.8455H76.4805V24.5864H41.2756L29.5714 31.9596V91.8455ZM77.7652 94.4321H28.2866C27.5764 94.4321 27 93.8523 27 93.1398V31.2452C27 30.7999 27.2279 30.3849 27.6028 30.1481L40.2244 22.1988C40.4279 22.0699 40.6653 21.9998 40.9064 21.9998H77.7652C78.4754 21.9998 79.05 22.5797 79.05 23.2941V93.1398C79.05 93.8523 78.4754 94.4321 77.7652 94.4321Z" fill="white"/>
<path d="M32.764 29.9532H39.6249V25.6309L32.764 29.9532ZM40.9096 32.538H28.2899C27.7153 32.538 27.2124 32.157 27.0541 31.6037C26.8959 31.0485 27.1201 30.4554 27.6061 30.1484L40.2277 22.1991C40.6233 21.949 41.1244 21.9339 41.5332 22.1631C41.942 22.3905 42.1944 22.8245 42.1944 23.2944V31.2456C42.1944 31.96 41.6198 32.538 40.9096 32.538Z" fill="white"/>
<path d="M83.4834 99.9998H34.0048C33.2946 99.9998 32.72 99.4218 32.72 98.7074V93.14C32.72 92.4256 33.2946 91.8458 34.0048 91.8458C34.715 91.8458 35.2896 92.4256 35.2896 93.14V97.4131H82.1986V30.1559H77.766C77.0558 30.1559 76.4812 29.5761 76.4812 28.8617C76.4812 28.1492 77.0558 27.5693 77.766 27.5693H83.4834C84.1936 27.5693 84.77 28.1492 84.77 28.8617V98.7074C84.77 99.4218 84.1936 99.9998 83.4834 99.9998Z" fill="white"/>
<path d="M40.9085 50.9209C36.4589 50.9209 32.84 47.2788 32.84 42.8029C32.84 38.3271 36.4589 34.6869 40.9085 34.6869C41.6187 34.6869 42.1932 35.2649 42.1932 35.9793C42.1932 36.6936 41.6187 37.2716 40.9085 37.2716C37.8774 37.2716 35.4096 39.754 35.4096 42.8029C35.4096 45.8538 37.8774 48.3343 40.9085 48.3343C43.9395 48.3343 46.4073 45.8538 46.4073 42.8029C46.4073 42.0886 46.9819 41.5087 47.6921 41.5087C48.4023 41.5087 48.9769 42.0886 48.9769 42.8029C48.9769 47.2788 45.3581 50.9209 40.9085 50.9209Z" fill="white"/>
<path d="M41.0062 45.8727C40.5672 45.867 40.1773 45.6548 39.9418 45.3061L37.8489 42.2022C37.4495 41.611 37.6021 40.8056 38.1899 40.4058C38.7776 40.006 39.5782 40.1594 39.9776 40.7506L41.0363 42.3197L46.3769 34.8422C46.7914 34.2605 47.5958 34.1297 48.1722 34.5466C48.7487 34.9616 48.8806 35.7707 48.4661 36.3525L42.0498 45.3345C41.8068 45.6718 41.4187 45.8727 41.0062 45.8727Z" fill="white"/>
<path d="M40.9085 70.403C36.4589 70.403 32.84 66.7628 32.84 62.285C32.84 57.8111 36.4589 54.169 40.9085 54.169C41.6187 54.169 42.1932 54.747 42.1932 55.4614C42.1932 56.1757 41.6187 56.7556 40.9085 56.7556C37.8774 56.7556 35.4096 59.2361 35.4096 62.285C35.4096 65.3359 37.8774 67.8164 40.9085 67.8164C43.9395 67.8164 46.4073 65.3359 46.4073 62.285C46.4073 61.5725 46.9819 60.9927 47.6921 60.9927C48.4023 60.9927 48.9769 61.5725 48.9769 62.285C48.9769 66.7628 45.3581 70.403 40.9085 70.403Z" fill="white"/>
<path d="M41.0062 65.3545C40.5672 65.3507 40.1773 65.1385 39.9418 64.7879L37.8489 61.6859C37.4495 61.0946 37.6021 60.2893 38.1899 59.8876C38.7776 59.4877 39.5782 59.6412 39.9776 60.2325L41.0344 61.8034L46.3769 54.324C46.7914 53.7442 47.5958 53.6115 48.1722 54.0284C48.7487 54.4453 48.8806 55.2544 48.4661 55.8343L42.0498 64.8163C41.8068 65.1555 41.4187 65.3545 41.0062 65.3545Z" fill="white"/>
<path d="M40.9085 89.887C36.4589 89.887 32.84 86.2449 32.84 81.7691C32.84 77.2932 36.4589 73.653 40.9085 73.653C41.6187 73.653 42.1932 74.231 42.1932 74.9454C42.1932 75.6598 41.6187 76.2396 40.9085 76.2396C37.8774 76.2396 35.4096 78.7201 35.4096 81.7691C35.4096 84.818 37.8774 87.3004 40.9085 87.3004C43.9395 87.3004 46.4073 84.818 46.4073 81.7691C46.4073 81.0547 46.9819 80.4767 47.6921 80.4767C48.4023 80.4767 48.9769 81.0547 48.9769 81.7691C48.9769 86.2449 45.3581 89.887 40.9085 89.887Z" fill="white"/>
<path d="M41.0062 84.8384C40.5672 84.8327 40.1773 84.6205 39.9418 84.2699L37.8489 81.1679C37.4495 80.5766 37.6021 79.7732 38.1899 79.3714C38.7776 78.9716 39.5782 79.1251 39.9776 79.7163L41.0363 81.2854L46.3769 73.8079C46.7914 73.2262 47.5958 73.0935 48.1722 73.5123C48.7487 73.9292 48.8806 74.7364 48.4661 75.3163L42.0498 84.3002C41.8068 84.6375 41.4187 84.8384 41.0062 84.8384Z" fill="white"/>
<path d="M69.592 43.5192H55.3334C54.6251 43.5192 54.0486 42.9393 54.0486 42.2249C54.0486 41.5105 54.6251 40.9307 55.3334 40.9307H69.592C70.3022 40.9307 70.8787 41.5105 70.8787 42.2249C70.8787 42.9393 70.3022 43.5192 69.592 43.5192Z" fill="white"/>
<path d="M69.592 63.2911H55.3334C54.6251 63.2911 54.0486 62.7113 54.0486 61.9969C54.0486 61.2825 54.6251 60.7045 55.3334 60.7045H69.592C70.3022 60.7045 70.8787 61.2825 70.8787 61.9969C70.8787 62.7113 70.3022 63.2911 69.592 63.2911Z" fill="white"/>
<path d="M69.592 83.0625H55.3334C54.6251 83.0625 54.0486 82.4827 54.0486 81.7683C54.0486 81.0539 54.6251 80.4759 55.3334 80.4759H69.592C70.3022 80.4759 70.8787 81.0539 70.8787 81.7683C70.8787 82.4827 70.3022 83.0625 69.592 83.0625Z" fill="white"/>
</svg>
