<svg width="90" height="96" viewBox="0 0 90 96" fill="none" xmlns="http://www.w3.org/2000/svg">
<path d="M0 8H60C76.5685 8 90 21.4315 90 38V57C90 73.5685 76.5685 87 60 87H0V8Z" fill="#7183E5"/>
<path d="M34.416 70C33.9893 70 33.6267 69.8507 33.328 69.552C33.0293 69.2533 32.88 68.8907 32.88 68.464V65.2C32.88 64.048 33.4133 63.0453 34.48 62.192L44.592 52.144C48.9867 48.688 52.0373 46 53.744 44.08C55.4933 42.1173 56.368 40.1973 56.368 38.32C56.368 36.3147 55.8133 34.736 54.704 33.584C53.6373 32.432 52.016 31.856 49.84 31.856C47.7067 31.856 46.0213 32.496 44.784 33.776C43.5467 35.0133 42.7787 36.6347 42.48 38.64C42.352 39.152 42.1173 39.536 41.776 39.792C41.4347 40.0053 41.0507 40.112 40.624 40.112H34.928C34.544 40.112 34.224 39.984 33.968 39.728C33.712 39.472 33.584 39.1733 33.584 38.832C33.6693 36.3147 34.352 33.968 35.632 31.792C36.912 29.5733 38.768 27.8027 41.2 26.48C43.632 25.1147 46.4907 24.432 49.776 24.432C53.1893 24.432 56.0693 25.0293 58.416 26.224C60.8053 27.376 62.5973 28.976 63.792 31.024C64.9867 33.072 65.584 35.3973 65.584 38C65.584 40.8587 64.7733 43.44 63.152 45.744C61.5733 48.048 59.1413 50.5227 55.856 53.168L46.768 62.384H65.008C65.4773 62.384 65.84 62.5333 66.096 62.832C66.3947 63.088 66.544 63.4507 66.544 63.92V68.464C66.544 68.8907 66.3947 69.2533 66.096 69.552C65.84 69.8507 65.4773 70 65.008 70H34.416Z" fill="white"/>
</svg>
