<svg width="111" height="122" viewBox="0 0 111 122" fill="none" xmlns="http://www.w3.org/2000/svg">
<path d="M111 0L111 82C111 104.091 93.0914 122 71 122L40 122C17.9086 122 3.07942e-06 104.091 4.04506e-06 82L7.62939e-06 -4.85196e-06L111 0Z" fill="#7183E5"/>
<path d="M66.8898 82.1713H49.5047C48.7667 82.1713 48.1697 81.672 48.1697 81.057C48.1697 80.4419 48.7667 79.9427 49.5047 79.9427H66.8898C67.6278 79.9427 68.2268 80.4419 68.2268 81.057C68.2268 81.672 67.6278 82.1713 66.8898 82.1713Z" fill="white"/>
<path d="M41.8346 64.7141C41.6783 64.7141 41.5455 64.6672 41.4361 64.5735C41.3423 64.4641 41.2954 64.3312 41.2954 64.1749V48.8671C41.2954 48.6952 41.3423 48.5624 41.4361 48.4686C41.5455 48.3592 41.6783 48.3045 41.8346 48.3045H47.789C49.5549 48.3045 50.9459 48.7343 51.9617 49.5938C52.9775 50.4534 53.4854 51.6958 53.4854 53.3211C53.4854 54.9465 52.9775 56.1889 51.9617 57.0485C50.9615 57.8924 49.5706 58.3144 47.789 58.3144H43.6397V64.1749C43.6397 64.3312 43.585 64.4641 43.4756 64.5735C43.3662 64.6672 43.2333 64.7141 43.0771 64.7141H41.8346ZM47.6717 56.3452C48.8126 56.3452 49.6722 56.0873 50.2504 55.5716C50.8443 55.0559 51.1412 54.3057 51.1412 53.3211C51.1412 52.3366 50.8521 51.5864 50.2738 51.0707C49.6956 50.5393 48.8282 50.2736 47.6717 50.2736H43.6162V56.3452H47.6717ZM63.7204 65.4643C63.5641 65.4643 63.4313 65.4096 63.3219 65.3002C63.2281 65.2064 63.1812 65.0814 63.1812 64.9251V63.0731C60.8526 63.0731 59.0788 62.573 57.8598 61.5728C56.6408 60.5726 55.9297 59.0489 55.7266 57.0016C55.7109 56.8609 55.7031 56.6343 55.7031 56.3218C55.7031 55.8685 55.7109 55.5482 55.7266 55.3606C55.836 53.3758 56.5392 51.8677 57.8364 50.8363C59.1491 49.8048 60.9308 49.2891 63.1812 49.2891V47.6715C63.1812 47.4996 63.2281 47.3668 63.3219 47.273C63.4313 47.1793 63.5641 47.1324 63.7204 47.1324H64.9394C65.0957 47.1324 65.2207 47.1871 65.3145 47.2965C65.4239 47.3902 65.4786 47.5153 65.4786 47.6715V49.2891C67.729 49.2891 69.5028 49.8048 70.8 50.8363C72.1127 51.8677 72.816 53.3758 72.9098 55.3606C72.941 55.767 72.9567 56.0405 72.9567 56.1811C72.9567 56.3218 72.941 56.5953 72.9098 57.0016C72.7379 59.0489 72.0346 60.5726 70.8 61.5728C69.5653 62.573 67.7915 63.0731 65.4786 63.0731V64.9251C65.4786 65.0814 65.4239 65.2064 65.3145 65.3002C65.2207 65.4096 65.0957 65.4643 64.9394 65.4643H63.7204ZM63.1812 51.2817C61.6028 51.2817 60.3838 51.6177 59.5242 52.2897C58.6803 52.9617 58.1958 54.0166 58.0708 55.4544C58.0552 55.6107 58.0474 55.8138 58.0474 56.0639C58.0474 56.4077 58.0552 56.6812 58.0708 56.8844C58.1489 58.3222 58.6178 59.3771 59.4773 60.0491C60.3525 60.7211 61.5871 61.0571 63.1812 61.0571V51.2817ZM65.4551 61.0571C68.7214 61.0571 70.4327 59.6662 70.589 56.8844C70.6046 56.7281 70.6124 56.4859 70.6124 56.1577C70.6124 55.8451 70.6046 55.6107 70.589 55.4544C70.4327 54.0166 69.9326 52.9617 69.0887 52.2897C68.2448 51.6177 67.0336 51.2817 65.4551 51.2817V61.0571Z" fill="white"/>
<path d="M73.6545 76.6001H41.6335C40.9369 76.6001 40.3726 76.1019 40.3726 75.4864C40.3726 74.871 40.9369 74.3715 41.6335 74.3715H73.6545C74.3509 74.3715 74.9154 74.871 74.9154 75.4864C74.9154 76.1019 74.3509 76.6001 73.6545 76.6001Z" fill="white"/>
<path d="M83.7424 100H28.2004C27.5378 100 27 99.4152 27 98.6953V23.3047C27 22.5847 27.5378 22 28.2004 22H39.5841C40.2469 22 40.7833 22.5847 40.7833 23.3047C40.7833 24.0244 40.2469 24.6048 39.5841 24.6048H29.3996V97.3914H82.542V24.6048H39.5841C38.9213 24.6048 38.8671 24.0244 38.8671 23.3047C38.8671 22.5847 38.9213 22 39.5841 22H83.7424C84.4052 22 84.9429 22.5847 84.9429 23.3047V98.6953C84.9429 99.4152 84.4052 100 83.7424 100Z" fill="white"/>
<path d="M32.5713 100C32.5713 100 32.5587 71.6423 32.5587 71.0235V24.2422H30.3569L29.2284 24.2286V23.6714L29.2347 22.0001H33.6793C34.2988 22.0001 34.7999 22.5023 34.7999 23.1211V100H32.5713Z" fill="white"/>
</svg>
