<svg width="90" height="96" viewBox="0 0 90 96" fill="none" xmlns="http://www.w3.org/2000/svg">
<path d="M0 8H60C76.5685 8 90 21.4315 90 38V57C90 73.5685 76.5685 87 60 87H0V8Z" fill="#7183E5"/>
<path d="M49.904 70.64C46.1493 70.64 42.9493 70.0427 40.304 68.848C37.7013 67.6533 35.7387 66.16 34.416 64.368C33.136 62.5333 32.4533 60.656 32.368 58.736C32.368 58.352 32.496 58.0533 32.752 57.84C33.0507 57.584 33.392 57.456 33.776 57.456H39.536C40.4747 57.456 41.0933 57.8827 41.392 58.736C42.3307 61.808 45.1893 63.344 49.968 63.344C52.5707 63.344 54.6187 62.7467 56.112 61.552C57.6053 60.3147 58.352 58.5653 58.352 56.304C58.352 52.0373 55.6853 49.904 50.352 49.904H43.76C43.2907 49.904 42.9067 49.7547 42.608 49.456C42.3093 49.1573 42.16 48.7947 42.16 48.368V45.68C42.16 44.9973 42.4587 44.3573 43.056 43.76L54.512 32.56H36.208C35.7813 32.56 35.4187 32.4107 35.12 32.112C34.8213 31.8133 34.672 31.4507 34.672 31.024V26.8C34.672 26.3307 34.8 25.9467 35.056 25.648C35.3547 25.3493 35.7387 25.2 36.208 25.2H63.664C64.1333 25.2 64.5173 25.3493 64.816 25.648C65.1147 25.9467 65.264 26.3307 65.264 26.8V30.64C65.264 31.28 64.9867 31.8773 64.432 32.432L53.36 43.824L54.128 43.888C58.224 44.2293 61.4667 45.4667 63.856 47.6C66.288 49.7333 67.504 52.784 67.504 56.752C67.504 59.568 66.736 62.0213 65.2 64.112C63.7067 66.2027 61.616 67.824 58.928 68.976C56.2827 70.0853 53.2747 70.64 49.904 70.64Z" fill="white"/>
</svg>
