<svg width="111" height="122" viewBox="0 0 111 122" fill="none" xmlns="http://www.w3.org/2000/svg">
<path d="M111 0L111 82C111 104.091 93.0914 122 71 122L40 122C17.9086 122 3.07942e-06 104.091 4.04506e-06 82L7.62939e-06 -4.85196e-06L111 0Z" fill="#7183E5"/>
<path d="M54.1718 94.4309H23.2942C22.5798 94.4309 22 93.8511 22 93.1386V31.245C22 30.7997 22.2293 30.3866 22.6083 30.1497L35.3023 22.1968C35.5069 22.0679 35.7457 22.0016 35.9882 22.0016H73.0642C73.7785 22.0016 74.3565 22.5795 74.3565 23.2939V47.8008C74.3565 48.5152 73.7785 49.0951 73.0642 49.0951C72.3498 49.0951 71.7718 48.5152 71.7718 47.8008V24.5863H36.3615L24.5865 31.9613V91.8443H54.1718C54.8862 91.8443 55.4642 92.4242 55.4642 93.1386C55.4642 93.8511 54.8862 94.4309 54.1718 94.4309Z" fill="white"/>
<path d="M27.7938 29.9505H34.6951V25.6302L27.7938 29.9505ZM35.9874 32.5371H23.2934C22.7154 32.5371 22.2095 32.1562 22.0503 31.601C21.8911 31.0477 22.1186 30.4546 22.6074 30.1495L35.3015 22.1965C35.6994 21.9483 36.2034 21.9332 36.6146 22.1624C37.0258 22.3898 37.2817 22.8238 37.2817 23.2937V31.2448C37.2817 31.9591 36.7018 32.5371 35.9874 32.5371Z" fill="white"/>
<path d="M78.8204 99.9998H29.0486C28.3342 99.9998 27.7562 99.4199 27.7562 98.7055V93.1383C27.7562 92.4239 28.3342 91.8441 29.0486 91.8441C29.763 91.8441 30.3428 92.4239 30.3428 93.1383V97.4113H77.5262V83.514C77.5262 82.7996 78.106 82.2198 78.8204 82.2198C79.5348 82.2198 80.1109 82.7996 80.1109 83.514V98.7055C80.1109 99.4199 79.5348 99.9998 78.8204 99.9998Z" fill="white"/>
<path d="M78.8202 40.6036C78.1058 40.6036 77.5259 40.0257 77.5259 39.3113V30.1551H73.0672C72.3528 30.1551 71.7749 29.5752 71.7749 28.8608C71.7749 28.1464 72.3528 27.5685 73.0672 27.5685H78.8202C79.5345 27.5685 80.1106 28.1464 80.1106 28.8608V39.3113C80.1106 40.0257 79.5345 40.6036 78.8202 40.6036Z" fill="white"/>
<path d="M64.2954 38.644H32.0534C31.339 38.644 30.7592 38.0661 30.7592 37.3517C30.7592 36.6373 31.339 36.0594 32.0534 36.0594H64.2954C65.0097 36.0594 65.5877 36.6373 65.5877 37.3517C65.5877 38.0661 65.0097 38.644 64.2954 38.644Z" fill="white"/>
<path d="M64.2954 45.2444H32.0534C31.339 45.2444 30.7592 44.6645 30.7592 43.952C30.7592 43.2377 31.339 42.6578 32.0534 42.6578H64.2954C65.0097 42.6578 65.5877 43.2377 65.5877 43.952C65.5877 44.6645 65.0097 45.2444 64.2954 45.2444Z" fill="white"/>
<path d="M64.2954 51.8444H32.0534C31.339 51.8444 30.7592 51.2645 30.7592 50.5501C30.7592 49.8358 31.339 49.2578 32.0534 49.2578H64.2954C65.0097 49.2578 65.5877 49.8358 65.5877 50.5501C65.5877 51.2645 65.0097 51.8444 64.2954 51.8444Z" fill="white"/>
<path d="M64.2954 58.4441H32.0534C31.339 58.4441 30.7592 57.8642 30.7592 57.1499C30.7592 56.4355 31.339 55.8575 32.0534 55.8575H64.2954C65.0097 55.8575 65.5877 56.4355 65.5877 57.1499C65.5877 57.8642 65.0097 58.4441 64.2954 58.4441Z" fill="white"/>
<path d="M64.2954 65.0419H32.0534C31.339 65.0419 30.7592 64.4639 30.7592 63.7495C30.7592 63.0352 31.339 62.4553 32.0534 62.4553H64.2954C65.0097 62.4553 65.5877 63.0352 65.5877 63.7495C65.5877 64.4639 65.0097 65.0419 64.2954 65.0419Z" fill="white"/>
<path d="M64.2954 71.6425H32.0534C31.339 71.6425 30.7592 71.0626 30.7592 70.3482C30.7592 69.6338 31.339 69.0559 32.0534 69.0559H64.2954C65.0097 69.0559 65.5877 69.6338 65.5877 70.3482C65.5877 71.0626 65.0097 71.6425 64.2954 71.6425Z" fill="white"/>
<path d="M62.3752 90.3397L67.88 92.8182L82.9805 59.2858L77.4758 56.8072L62.3752 90.3397ZM68.528 95.8217C68.3499 95.8217 68.1699 95.7838 67.9974 95.708L60.1335 92.1664C59.8209 92.0261 59.5765 91.7665 59.4571 91.4463C59.3358 91.1242 59.3453 90.7698 59.4874 90.4571L75.6491 54.5656C75.9409 53.9156 76.7046 53.6219 77.3583 53.9175L85.2222 57.4591C85.5349 57.5993 85.7793 57.8589 85.8987 58.1792C86.0219 58.4994 86.0105 58.8556 85.8684 59.1683L69.7066 95.0599C69.4925 95.5374 69.0207 95.8217 68.528 95.8217Z" fill="white"/>
<path d="M77.4201 53.9458L85.1608 57.4305L86.0041 55.5602L78.2615 52.0755L77.4201 53.9458ZM85.807 60.434C85.6308 60.434 85.4508 60.398 85.2783 60.3203L75.1784 55.7725C74.8677 55.6323 74.6213 55.3726 74.5 55.0505C74.3788 54.7322 74.3902 54.3759 74.5304 54.0614L76.4347 49.8338C76.7266 49.1819 77.4921 48.892 78.1459 49.1857L88.2439 53.7335C88.5565 53.8738 88.801 54.1334 88.9223 54.4536C89.0435 54.7757 89.0321 55.132 88.8919 55.4428L86.9876 59.6722C86.7734 60.1497 86.3016 60.434 85.807 60.434Z" fill="white"/>
<path d="M80.4451 50.2201L85.9479 52.6987L87.0564 50.2391C87.1512 50.0288 87.0565 49.7824 86.848 49.6877L82.1032 47.5521C81.8985 47.4574 81.6465 47.5502 81.5517 47.7606L80.4451 50.2201ZM86.596 55.7021C86.416 55.7021 86.2341 55.6642 86.0654 55.5884L78.2053 52.0487C77.5535 51.755 77.2617 50.9895 77.5573 50.3376L79.1944 46.6975C79.8728 45.1873 81.6578 44.5127 83.1662 45.193L87.9111 47.3285C89.4213 48.0107 90.0959 49.7919 89.4156 51.3002L87.7765 54.9404C87.6363 55.253 87.3748 55.4956 87.0545 55.6188C86.9067 55.6737 86.7533 55.7021 86.596 55.7021Z" fill="white"/>
<path d="M62.3273 93.1553L62.8806 96.5681L65.8045 94.7205L62.3273 93.1553ZM61.918 99.9998C61.7361 99.9998 61.5561 99.9619 61.3874 99.8842C60.9914 99.706 60.711 99.3422 60.6428 98.9121L59.3902 91.1941C59.3125 90.726 59.5001 90.2504 59.8791 89.9624C60.2543 89.6725 60.7583 89.6119 61.1961 89.8089L69.0581 93.3486C69.4939 93.5438 69.7838 93.9626 69.8179 94.4363C69.8501 94.9119 69.6209 95.3667 69.2191 95.6206L62.6097 99.7989C62.3993 99.9316 62.1606 99.9998 61.918 99.9998Z" fill="white"/>
</svg>
