<svg width="90" height="96" viewBox="0 0 90 96" fill="none" xmlns="http://www.w3.org/2000/svg">
<path d="M0 8H60C76.5685 8 90 21.4315 90 38V57C90 73.5685 76.5685 87 60 87H0V8Z" fill="#7183E5"/>
<path d="M47.728 70C47.3013 70 46.9387 69.8507 46.64 69.552C46.3413 69.2533 46.192 68.8907 46.192 68.464V35.312L36.464 42.8C36.208 43.0133 35.9093 43.12 35.568 43.12C35.056 43.12 34.6293 42.8853 34.288 42.416L31.6 38.96C31.3867 38.6187 31.28 38.2987 31.28 38C31.28 37.488 31.5147 37.0613 31.984 36.72L46.32 25.648C46.704 25.3493 47.2373 25.2 47.92 25.2H53.552C54.0213 25.2 54.384 25.3493 54.64 25.648C54.9387 25.904 55.088 26.2667 55.088 26.736V68.464C55.088 68.8907 54.9387 69.2533 54.64 69.552C54.384 69.8507 54.0213 70 53.552 70H47.728Z" fill="white"/>
</svg>
