<svg width="111" height="122" viewBox="0 0 111 122" fill="none" xmlns="http://www.w3.org/2000/svg">
<path d="M111 0L111 82C111 104.091 93.0914 122 71 122L40 122C17.9086 122 3.07942e-06 104.091 4.04506e-06 82L7.62939e-06 -4.85196e-06L111 0Z" fill="#7183E5"/>
<path d="M65.1469 100H28.1199C24.1948 100 21 97.0935 21 93.5204V28.4786C21 24.9054 24.1948 22.0006 28.1199 22.0006H65.1469C66.449 22.0006 67.724 22.3233 68.8341 22.9347C69.5061 23.3049 69.721 24.1023 69.3141 24.7156C68.9051 25.3269 68.0286 25.5206 67.3588 25.1503C66.6931 24.7858 65.9294 24.5902 65.1469 24.5902H28.1199C25.764 24.5902 23.8484 26.3351 23.8484 28.4786V93.5204C23.8484 95.6639 25.764 97.4068 28.1199 97.4068H65.1469C67.5007 97.4068 69.4184 95.6639 69.4184 93.5204V80.777C69.4184 80.0613 70.0569 79.4822 70.8436 79.4822C71.6283 79.4822 72.2668 80.0613 72.2668 80.777V93.5204C72.2668 97.0935 69.072 100 65.1469 100Z" fill="white"/>
<path d="M34.4877 24.5792V25.0954C34.4877 25.5228 34.8371 25.8707 35.2662 25.8707H54.4438C54.8729 25.8707 55.2204 25.5228 55.2204 25.0954V24.5792H34.4877ZM54.4438 28.4518H35.2662C33.4092 28.4518 31.8978 26.9466 31.8978 25.0954V23.2896C31.8978 22.5767 32.4769 22 33.1927 22H56.5172C57.2331 22 57.8122 22.5767 57.8122 23.2896V25.0954C57.8122 26.9466 56.3008 28.4518 54.4438 28.4518Z" fill="white"/>
<path d="M36.5121 73.6277C35.4716 73.6277 35.1241 74.4427 35.0425 74.6923C34.9627 74.9419 34.7615 75.8042 35.6045 76.413L37.4178 77.7272C38.8742 78.7785 39.478 80.6298 38.9217 82.3335L38.2286 84.4588C37.9077 85.4459 38.578 86.0264 38.7907 86.1795C39.0033 86.3327 39.7647 86.7884 40.6078 86.1795L42.423 84.8672C43.8775 83.814 45.8332 83.814 47.2877 84.8672L49.101 86.1795C49.9478 86.7903 50.7054 86.3327 50.9181 86.1795C51.1327 86.0264 51.8029 85.4459 51.4801 84.4588L50.7871 82.3335C50.2327 80.6298 50.8365 78.7785 52.2909 77.7272L54.1062 76.413C54.9492 75.8042 54.7479 74.9419 54.6663 74.6923C54.5846 74.4427 54.2391 73.6277 53.1966 73.6277H50.9542C49.156 73.6277 47.5744 72.4837 47.018 70.78L46.325 68.6566C46.0022 67.6695 45.1193 67.5939 44.8553 67.5939C44.5914 67.5939 43.7066 67.6695 43.3857 68.6566L42.6926 70.78C42.1363 72.4837 40.5546 73.6277 38.7565 73.6277H36.5121ZM39.7002 89.0688C38.8533 89.0688 38.0065 88.8022 37.2678 88.2671C35.7906 87.1987 35.2001 85.391 35.764 83.659L36.4571 81.5355C36.664 80.9001 36.44 80.2081 35.8969 79.8148L34.0817 78.5025C32.6045 77.4322 32.0139 75.6245 32.5779 73.8944C33.1418 72.1661 34.6855 71.0485 36.5121 71.0485H38.7565C39.4286 71.0485 40.0192 70.6212 40.2261 69.984L40.9192 67.8586C41.485 66.1303 43.0287 65.0109 44.8553 65.0109C46.6819 65.0128 48.2256 66.1303 48.7896 67.8586L49.4826 69.984C49.6915 70.6212 50.282 71.0485 50.9542 71.0485H53.1966C55.0232 71.0485 56.5669 72.1661 57.1328 73.8944C57.6967 75.6245 57.1062 77.4322 55.629 78.5025L53.8137 79.8148C53.2707 80.2081 53.0447 80.9001 53.2517 81.5355L53.9466 83.659C54.5087 85.391 53.9201 87.1987 52.4428 88.2671C50.9656 89.3354 49.0554 89.3354 47.5782 88.2671L45.7648 86.9548C45.2199 86.5615 44.4908 86.5615 43.9458 86.9548L42.1306 88.2671C41.392 88.8022 40.5451 89.0688 39.7002 89.0688Z" fill="white"/>
<path d="M62.841 77.1503C61.8175 77.1503 60.796 76.8269 59.9036 76.1821L59.0605 75.5714C58.4813 75.1535 58.3522 74.3461 58.7738 73.7693C59.1953 73.1926 60.0061 73.0659 60.5833 73.4838L61.4263 74.0927C62.4707 74.849 63.572 74.5881 64.2555 74.0927C64.9391 73.5991 65.5277 72.6348 65.1289 71.4152L64.227 68.6469C63.5549 66.5915 64.284 64.3545 66.0423 63.082L68.4062 61.3726C69.4486 60.6162 69.5417 59.493 69.2797 58.6932C69.0195 57.8914 68.2809 57.0368 66.9916 57.0368H64.0695C61.8973 57.0368 59.9871 55.6545 59.3168 53.5972L58.413 50.8308C58.0162 49.6093 56.9699 49.1744 56.125 49.1744C55.28 49.1744 54.2338 49.6093 53.835 50.8308L52.9331 53.5972C52.261 55.6545 50.3508 57.0368 48.1805 57.0368H45.2583C43.9691 57.0368 43.2304 57.8914 42.9703 58.6932C42.7083 59.493 42.8013 60.6162 43.8437 61.3726L44.0773 61.5428C44.6564 61.9607 44.7836 62.7681 44.3621 63.3448C43.9406 63.9196 43.1298 64.0482 42.5526 63.6284L42.319 63.4601C40.5361 62.1687 39.824 59.9847 40.5038 57.8952C41.1854 55.8058 43.0519 54.4557 45.2583 54.4557H48.1805C49.2249 54.4557 50.1457 53.7901 50.4685 52.7992L51.3704 50.0328C52.0521 47.9434 53.9186 46.5933 56.125 46.5933C58.3313 46.5933 60.1959 47.9453 60.8776 50.0328L61.7814 52.8011C62.1042 53.7901 63.0232 54.4557 64.0695 54.4557H66.9916C69.198 54.4557 71.0626 55.8058 71.7462 57.8952C72.4259 59.9847 71.7139 62.1687 69.929 63.4601L67.5651 65.1695C66.7201 65.7841 66.3689 66.8581 66.6898 67.8489L67.5936 70.6172C68.2752 72.7048 67.5632 74.8906 65.7783 76.1802C64.8859 76.8269 63.8644 77.1503 62.841 77.1503Z" fill="white"/>
<path d="M78.5439 59.3207C77.3951 59.3207 76.2482 58.9595 75.2457 58.2334L72.4925 56.2404C71.9133 55.8225 71.7842 55.0151 72.2058 54.4384C72.6254 53.8617 73.4362 53.735 74.0153 54.1529L76.7704 56.1458C78.0787 57.0913 79.461 56.768 80.3173 56.1458C81.1756 55.5256 81.9142 54.3155 81.4148 52.7857L80.3629 49.5598C79.6091 47.2511 80.4275 44.7418 82.4003 43.3142L85.1554 41.3212C86.4637 40.3738 86.5795 38.9651 86.251 37.9592C85.9225 36.957 84.9978 35.8829 83.3819 35.8829H79.9756C77.5375 35.8829 75.3938 34.3324 74.64 32.0236L73.5881 28.7996C73.0887 27.268 71.7786 26.7215 70.7171 26.7215C69.6576 26.7215 68.3475 27.268 67.8462 28.7996L66.7943 32.0236C66.0423 34.3324 63.8968 35.8829 61.4587 35.8829H58.0543C56.4384 35.8829 55.5118 36.957 55.1833 37.9592C54.8567 38.9651 54.9725 40.3738 56.2808 41.3212L59.0359 43.3142C59.6131 43.734 59.7423 44.5414 59.3226 45.1162C58.9011 45.6948 58.0922 45.8215 57.5131 45.4018L54.758 43.4087C52.7548 41.9603 51.9535 39.5078 52.7206 37.1631C53.4839 34.8184 55.5783 33.3038 58.0543 33.3038H61.4587C62.7727 33.3038 63.9252 32.468 64.3297 31.2257L65.3835 28.0017C66.1468 25.657 68.2411 24.1424 70.7171 24.1424C73.1931 24.1424 75.2875 25.657 76.0527 28.0017L77.1046 31.2257C77.5109 32.468 78.6635 33.3038 79.9756 33.3038H83.3819C85.856 33.3038 87.9504 34.8184 88.7156 37.1631C89.4808 39.5078 88.6814 41.9603 86.6782 43.4087L83.9231 45.4018C82.8617 46.1695 82.4212 47.5196 82.8275 48.7619L83.8794 51.9878C84.6446 54.3325 83.8452 56.785 81.842 58.2334C80.8395 58.9595 79.6926 59.3207 78.5439 59.3207Z" fill="white"/>
<path d="M48.3884 36.5283H31.5254C30.8096 36.5283 30.2305 35.9516 30.2305 35.2387C30.2305 34.5258 30.8096 33.9491 31.5254 33.9491H48.3884C49.1042 33.9491 49.6853 34.5258 49.6853 35.2387C49.6853 35.9516 49.1042 36.5283 48.3884 36.5283Z" fill="white"/>
<path d="M48.3884 42.7094H31.5254C30.8096 42.7094 30.2305 42.1307 30.2305 41.4179C30.2305 40.705 30.8096 40.1283 31.5254 40.1283H48.3884C49.1042 40.1283 49.6853 40.705 49.6853 41.4179C49.6853 42.1307 49.1042 42.7094 48.3884 42.7094Z" fill="white"/>
<path d="M48.3884 48.8906H31.5254C30.8096 48.8906 30.2305 48.312 30.2305 47.5991C30.2305 46.8863 30.8096 46.3077 31.5254 46.3077H48.3884C49.1042 46.3077 49.6853 46.8863 49.6853 47.5991C49.6853 48.312 49.1042 48.8906 48.3884 48.8906Z" fill="white"/>
<path d="M39.0598 55.0699H31.5254C30.8096 55.0699 30.2305 54.4913 30.2305 53.7785C30.2305 53.0675 30.8096 52.4889 31.5254 52.4889H39.0598C39.7756 52.4889 40.3547 53.0675 40.3547 53.7785C40.3547 54.4913 39.7756 55.0699 39.0598 55.0699Z" fill="white"/>
<path d="M36.9863 61.2518H31.5254C30.8096 61.2518 30.2305 60.6732 30.2305 59.9604C30.2305 59.2475 30.8096 58.6708 31.5254 58.6708H36.9863C37.7021 58.6708 38.2832 59.2475 38.2832 59.9604C38.2832 60.6732 37.7021 61.2518 36.9863 61.2518Z" fill="white"/>
<path d="M35.9496 67.4312H31.5254C30.8096 67.4312 30.2305 66.8544 30.2305 66.1416C30.2305 65.4287 30.8096 64.8501 31.5254 64.8501H35.9496C36.6654 64.8501 37.2464 65.4287 37.2464 66.1416C37.2464 66.8544 36.6654 67.4312 35.9496 67.4312Z" fill="white"/>
</svg>
