<svg width="18" height="16" viewBox="0 0 18 16" fill="none" xmlns="http://www.w3.org/2000/svg">
<path d="M12.5719 10.778L13.5719 9.77803C13.7281 9.62178 14 9.73115 14 9.95615V14.4999C14 15.328 13.3281 15.9999 12.5 15.9999H1.5C0.671875 15.9999 0 15.328 0 14.4999V3.4999C0 2.67178 0.671875 1.9999 1.5 1.9999H10.0469C10.2688 1.9999 10.3813 2.26865 10.225 2.42803L9.225 3.42803C9.17813 3.4749 9.11563 3.4999 9.04688 3.4999H1.5V14.4999H12.5V10.953C12.5 10.8874 12.525 10.8249 12.5719 10.778ZM17.4656 4.47178L9.25937 12.678L6.43437 12.9905C5.61562 13.0812 4.91875 12.3905 5.00938 11.5655L5.32188 8.74053L13.5281 0.534277C14.2437 -0.181348 15.4 -0.181348 16.1125 0.534277L17.4625 1.88428C18.1781 2.5999 18.1781 3.75928 17.4656 4.47178ZM14.3781 5.4374L12.5625 3.62178L6.75625 9.43115L6.52812 11.4718L8.56875 11.2437L14.3781 5.4374ZM16.4031 2.94678L15.0531 1.59678C14.925 1.46865 14.7156 1.46865 14.5906 1.59678L13.625 2.5624L15.4406 4.37803L16.4062 3.4124C16.5312 3.28115 16.5312 3.0749 16.4031 2.94678Z" fill="#1731B9"/>
</svg>
