<svg width="154" height="153" viewBox="0 0 154 153" fill="none" xmlns="http://www.w3.org/2000/svg">
    <path d="M141.318 83.9968C141.318 83.9962 141.318 83.9959 141.318 83.9952L116.868 22.603C116.349 21.2986 114.87 20.6618 113.566 21.1807C113.565 21.181 113.564 21.1813 113.563 21.182L14.3718 60.6789C13.9673 60.8537 13.6165 61.1327 13.355 61.4873C12.53 61.916 12.0089 62.7644 12 63.6939V129.789C12 131.193 13.1382 132.331 14.5421 132.331H121.311C122.715 132.331 123.853 131.193 123.853 129.789V93.6909L139.899 87.3C141.203 86.7798 141.839 85.3009 141.318 83.9968ZM118.769 127.247H17.0842V66.236H118.769V127.247ZM54.4153 61.1645L96.9806 44.2034C100.779 48.1965 106.043 50.4659 111.555 50.4875L115.8 61.1645H54.4153ZM123.853 88.2304V63.6939C123.853 62.29 122.715 61.1517 121.311 61.1517H121.271L115.884 47.6226C115.824 47.5098 115.754 47.4024 115.675 47.3023C115.403 46.0779 114.269 45.2425 113.019 45.3448C107.891 45.8123 102.874 43.6521 99.6905 39.6047C98.8983 38.627 97.5059 38.3839 96.4289 39.0353C96.3082 39.0496 96.1884 39.0718 96.0705 39.1014L44.1045 59.7943C43.4756 60.0408 42.9726 60.5299 42.7088 61.1517H26.9273L113.085 26.8458L135.656 83.5224L123.853 88.2304Z" fill="#6FBA6D"/>
    <path d="M23.9835 110.085C28.9191 111.544 32.7812 115.401 34.2461 120.335C34.5673 121.412 35.5578 122.15 36.6814 122.15C36.8133 122.142 36.9442 122.122 37.0729 122.092C37.187 122.124 37.3036 122.148 37.4212 122.163H98.4321C98.537 122.149 98.6406 122.128 98.7422 122.099C100.012 122.408 101.292 121.629 101.601 120.359C101.602 120.354 101.604 120.35 101.605 120.345C103.066 115.406 106.929 111.544 111.867 110.083C113.065 109.717 113.809 108.523 113.611 107.286C113.645 107.163 113.67 107.037 113.685 106.91V86.573C113.67 86.4456 113.644 86.3198 113.609 86.1968C113.808 84.9597 113.063 83.7656 111.865 83.4005C106.926 81.9397 103.064 78.0754 101.607 73.1354C101.239 71.9295 100.034 71.1834 98.7905 71.3915C98.673 71.3588 98.5532 71.3349 98.4321 71.3203H37.4212C37.2931 71.3356 37.1663 71.361 37.0424 71.3966C35.806 71.1996 34.6131 71.9434 34.2461 73.1405C32.784 78.0782 28.9216 81.9397 23.9835 83.4005C22.7859 83.7665 22.0417 84.9601 22.2396 86.1968C22.2066 86.3204 22.1828 86.4459 22.1685 86.573V106.91C22.1831 107.029 22.2069 107.148 22.2396 107.263C22.0312 108.508 22.777 109.715 23.9835 110.085ZM27.2527 87.6051C32.3573 85.5549 36.4031 81.5091 38.4533 76.4046H97.3975C99.4486 81.5091 103.495 85.5549 108.601 87.6051V105.878C103.498 107.93 99.4524 111.976 97.4 117.078H38.4533C36.4008 111.976 32.3557 107.93 27.2527 105.878V87.6051Z" fill="#6FBA6D"/>
    <path d="M68.2527 112.505C76.6767 112.505 83.5055 105.677 83.5055 97.2527C83.5055 88.8288 76.6767 82 68.2527 82C59.8288 82 53 88.8288 53 97.2527C53.0083 105.673 59.8323 112.497 68.2527 112.505ZM68.2527 87.0842C73.8686 87.0842 78.4212 91.6369 78.4212 97.2527C78.4212 102.869 73.8686 107.421 68.2527 107.421C62.6369 107.421 58.0842 102.869 58.0842 97.2527C58.0842 91.6369 62.6369 87.0842 68.2527 87.0842Z" fill="#6FBA6D"/>
    <path d="M39.9636 100.555C42.0694 100.555 43.7768 98.8472 43.7768 96.7414C43.7768 94.6356 42.0694 92.9282 39.9636 92.9282C37.8577 92.9282 36.1504 94.6356 36.1504 96.7414C36.1504 98.8476 37.8577 100.555 39.9636 100.555ZM39.9636 95.4703C40.6655 95.4703 41.2346 96.0395 41.2346 96.7414C41.2346 97.4434 40.6655 98.0125 39.9636 98.0125C39.2616 98.0125 38.6925 97.4434 38.6925 96.7414C38.6925 96.0395 39.2616 95.4703 39.9636 95.4703Z" fill="#6FBA6D"/>
    <path d="M95.8898 100.555C97.9957 100.555 99.703 98.8472 99.703 96.7414C99.703 94.6356 97.9957 92.9282 95.8898 92.9282C93.784 92.9282 92.0767 94.6356 92.0767 96.7414C92.0767 98.8476 93.784 100.555 95.8898 100.555ZM95.8898 95.4703C96.5918 95.4703 97.1609 96.0395 97.1609 96.7414C97.1609 97.4434 96.5918 98.0125 95.8898 98.0125C95.1879 98.0125 94.6188 97.4434 94.6188 96.7414C94.6188 96.0395 95.1879 95.4703 95.8898 95.4703Z" fill="#6FBA6D"/>
</svg>
